<?xml version="1.0" encoding="utf-8"?>
<!-- Generator: Adobe Illustrator 27.5.0, SVG Export Plug-In . SVG Version: 6.00 Build 0)  -->
<svg version="1.1" xmlns="http://www.w3.org/2000/svg" xmlns:xlink="http://www.w3.org/1999/xlink" x="0px" y="0px"
	 viewBox="0 0 1122 1122" xml:space="preserve">
<g id="Objects">
	<g>
		<path id="XMLID_391_" style="fill:#564C44;" d="M745.466,705.834c-0.178-7.231-0.549-14.946-2.045-22.385
			c-0.739-5.929-1.967-11.775-3.186-17.212l-1.155-5.106c-2.796-12.303-5.435-23.926-6.193-36.542
			c-0.188-3.129-0.387-6.254-0.586-9.38c-0.721-11.333-1.47-23.051-1.64-34.592c-0.132-8.806-1.344-17.455-2.516-25.82
			c-0.697-4.971-1.418-10.11-1.9-15.21c-1.795-19-1.727-38.656-1.663-57.665c0.028-8.601,0.059-17.495-0.085-26.197l-0.105-5.828
			c-0.224-12.119-0.457-24.651,0.252-36.9c0.171-2.923,0.366-5.846,0.562-8.768c0.553-8.234,1.125-16.748,1.061-25.178
			c0.633-6.342,1.466-12.848,2.547-19.884c1.274-8.292,2.044-16.735,2.79-24.901c0.485-5.319,0.986-10.82,1.621-16.199
			c0.574-4.851,1.342-9.797,2.085-14.58c1.523-9.804,3.099-19.943,3.147-30.223c0.041-8.75,0.098-20.733-6.025-28.704
			c-4.644-6.048-10.906-9.24-18.12-9.24c-0.057,0-0.114,0.001-0.171,0.001c-12.973,0.09-26.422,10.241-33.43,19.634
			c-7.404,9.927-10.464,21.746-12.303,30.933c-1.244,6.212-3.38,12.349-5.447,18.284c-2.275,6.53-4.624,13.279-5.895,20.347
			c-1.997,5.091-3.012,10.444-3.995,15.625c-0.627,3.312-1.276,6.737-2.168,9.971c-0.558,2.013-1.134,4.016-1.708,6.017
			c-2.095,7.29-4.262,14.828-5.387,22.621l-0.393,2.714c-1.391,9.626-2.831,19.58-3.812,29.424
			c-0.311,3.107-0.434,6.263-0.551,9.314c-0.249,6.423-0.485,12.498-2.316,18.259c-4.345,6.39-5.333,14.804-6.207,22.243
			c-0.345,2.927-0.67,5.691-1.166,8.22c-2.522,12.828-5.927,26.482-10.119,40.581c-1.068,3.585-1.971,7.361-2.845,11.011
			c-0.675,2.824-1.374,5.74-2.147,8.567l-0.007,0.011c-2.241,3.29-4.011,5.888-7.386,7.929c-1.663,1.004-3.583,2.005-5.729,2.99
			c-5.39-17.868-9.588-36.738-13.009-52.997c-3.128-14.867-4.406-30.413-5.642-45.448c-0.489-5.945-0.993-12.093-1.607-18.116
			l-0.074-0.73c-1.862-18.305-3.786-37.233-6.646-55.755c-0.675-4.374-1.458-8.78-2.214-13.041
			c-1.152-6.487-2.342-13.196-3.162-19.836c-0.138-1.113-0.326-2.254-0.538-3.411c-0.205-3.322-0.477-7.225-0.934-11.13
			c-0.642-5.478-1.544-10.978-2.415-16.298c-0.773-4.713-1.572-9.586-2.178-14.381c-0.979-7.743-2.213-15.499-3.406-23.001
			l-0.979-6.183c-0.507-3.239-0.745-6.652-0.977-9.953c-0.441-6.31-0.897-12.834-3.199-19.083
			c-4.42-11.996-16.101-19.532-29.763-19.137c-8.794,0.239-16.067,2.648-22.223,7.363c-13.003,6.168-16.955,26.303-17.222,36.16
			c-0.464,17.104,1.15,34.151,2.71,50.637c0.947,10.011,1.927,20.364,2.427,30.592c-0.478,4.358-0.442,9.023-0.41,13.151
			c0.012,1.543,0.024,3.012,0.006,4.359c-0.137,10.667,0.203,21.115,1.009,31.053c0.738,9.104,2.018,18.271,3.256,27.137
			c1.572,11.263,3.197,22.911,3.698,34.397c0.012,0.275,0.052,0.515,0.101,0.72c-0.311,4.674-0.083,9.324,0.137,13.826
			c0.072,1.478,0.145,2.963,0.2,4.458c0.099,2.7,0.168,5.396,0.236,8.091c0.158,6.168,0.322,12.547,0.854,18.865
			c0.507,6.023,1.506,11.936,2.648,17.728c-1.494-2.552-3.141-5.011-5.081-7.236c-9.111-10.45-25.011-9.645-33.675-8.235
			c-11.912,1.938-27.371,7.243-33.369,21.511l-0.315,0.751c-2.653,6.304-5.66,13.45-6.691,20.497
			c-0.986,6.747-0.324,13.431,0.793,19.792c-11.951-2.535-26.895-1.929-36.681,5.034c-6.375,4.535-9.957,11.359-10.36,19.731
			c-0.247,5.142,0.826,10.011,1.862,14.718l0.488,2.238c0.605,2.838,1.135,5.696,1.665,8.552c1.017,5.482,2.069,11.151,3.655,16.664
			c3.269,11.372,8.619,22.077,13.792,32.429c1.635,3.272,3.266,6.536,4.829,9.813c2.564,5.376,4.708,11.239,6.781,16.909
			c3.28,8.969,6.671,18.246,11.936,26.392c0.683,1.056,1.417,2.058,2.076,2.934c0.14,0.283,0.319,0.546,0.53,0.782
			c-0.428,3.68,0.513,8.178,1.353,12.2c0.5,2.39,0.972,4.647,1.07,6.302c0.395,6.638,0.801,13.146,1.442,19.78
			c0.557,5.749,0.97,11.628,1.37,17.313c0.587,8.362,1.195,17.007,2.273,25.5c1.639,12.923,3.41,25.513,7.025,37.487
			c2.937,9.728,7.532,18.704,11.976,27.386c0.833,1.626,1.666,3.254,2.491,4.889c4.75,9.43,10.651,19.069,21.564,25.703
			c9.568,5.815,20.967,10.185,32.964,12.641c21.125,4.32,49.892,7.105,68.498-3.641c5.486,3.105,11.664,4.825,17.657,6.492
			c1.532,0.426,3.051,0.849,4.542,1.29c6.76,2.006,14.441,3.83,22.969,3.83c4.581,0,9.408-0.526,14.464-1.832
			c15.957-4.118,29.897-8.074,42.614-12.092l0.505-0.16c10.796-3.412,20.995-6.634,28.511-16.421
			c8.823-11.487,16.17-23.711,21.251-35.349c5.769-13.216,7.629-26.988,9.271-39.138l0.73-5.388
			c1.941-14.276,3.945-29.04,5.257-43.636C745.338,739.896,745.882,722.855,745.466,705.834z M566.033,876.44
			c-5.766-12.964-8.553-27.22-10.414-41.365c-0.139-1.055-1.548-1.081-1.663,0c-1.184,11.05-0.64,23.035,2.424,33.794
			c-0.519-0.749-1.012-1.522-1.463-2.334c-3.827-6.88-4.714-14.215-5.964-21.827c-0.11-0.673-1.02-0.414-1.089,0.147
			c-1.245,10.085,0.761,19.787,5.313,28.318c-5.197-6.68-7.789-14.526-9.414-23.927c-0.097-0.561-1.071-0.579-1.152,0
			c-1.187,8.566-0.031,19.813,4.528,28.424c-6.284-7.178-10.064-17.644-11.565-25.859c-0.063-0.342-0.643-0.35-0.699,0
			c-0.644,3.994-0.255,7.963,0.703,11.831c0.001,0.007-0.001,0.013,0.001,0.02c1.058,4.636,2.252,10.055,0.806,14.643
			c-1.921,6.096-8.19,7.35-14.17,7.771c-2.27,0.16-4.631,0.175-7.009,0.071c-5.681-0.542-11.53-1.528-17.131-3.065
			c-1.926-0.657-3.829-1.341-5.8-1.84c-4.553-1.654-8.822-3.733-12.524-6.347c-0.481-0.34-1.027,0.404-0.62,0.804
			c9.732,9.573,26.336,15.303,39.579,17.008c16.297,2.098,32.621,0.148,48.888,1.182c-20.625,6.773-45.488,4.928-65.762-0.797
			c-11.078-3.128-23.791-8.21-31.888-16.732c-7.879-8.292-12.843-20.68-17.658-30.939c-10.491-22.358-13.106-48.283-14.589-72.648
			c-0.739-12.133-2.337-24.167-3.411-36.269c-0.585-6.585-1.374-13.106-3.246-19.36c6.101,6.29,13.471,11.647,20.655,16.133
			c0.177,0.11,0.357,0.209,0.534,0.316c4.056,4.334,8.242,8.337,14.803,9.336c0.425,0.065,0.844,0.088,1.264,0.124
			c-8.389,2.644-16.131,6.24-22.077,13.03c-0.738,0.843,0.221,2.336,1.266,1.641c7.793-5.181,16.768-7.861,26.081-9.375
			c-2.077,0.969-4.143,2.04-6.208,3.206c-6.871,3.88-18.528,9.429-19.369,18.309c-0.075,0.791,1.114,1.058,1.47,0.398
			c4.924-9.129,17.839-12.88,27.121-15.682c1.095-0.331,2.2-0.59,3.31-0.803c-11.666,6.514-21.943,17.04-28.688,26.65
			c-0.483,0.689,0.536,1.349,1.105,0.853c6.394-5.573,12.888-10.614,20.192-14.723c-3.615,4.458-6.551,9.325-9.324,14.357
			c-2.361,4.286-5.259,8.296-5.785,13.213c-0.091,0.853,1.072,0.968,1.47,0.398c6.028-8.605,13.305-16.957,21.081-24.027
			c0.231-0.21,0.472-0.39,0.705-0.594c-0.647,0.934-1.281,1.876-1.876,2.84c-5.457,8.836-7.892,19.362-11.529,29.007
			c-0.341,0.905,1.02,1.688,1.64,0.954c5.686-6.739,8.733-15.219,13.855-22.368c1.034-1.443,2.131-2.825,3.254-4.181
			c-5.361,12.107-8.195,25.082-7.104,38.897c0.116,1.471,2.096,1.434,2.26,0c2.386-20.792,11.131-37.755,24.101-53.91
			c1.94-2.417,3.949-4.778,5.997-7.104c-2.514,3.614-4.86,7.346-7.034,11.175c-7.656,13.489-17.838,34.048-11.466,49.706
			c0.254,0.625,1.266,0.609,1.257-0.17c-0.186-16.053,8.533-29.917,17.022-42.958c-6.13,13.347-8.941,27.856-6.311,41.96
			c0.147,0.789,1.393,0.757,1.563,0c3.07-13.705,6.37-27.123,13.771-39.166c-5.46,13.032-8.548,31.382-4.353,44.305
			c0.303,0.934,1.581,0.536,1.44-0.397c-2.202-14.557,7.064-34.023,14.602-45.677c2.404-3.716,5.039-8.147,7.931-12.582
			c-1.911,4.398-3.482,8.915-4.867,13.198c-2.327,7.194-4.135,14.506-5.869,21.858c-1.297,5.498-3.392,10.722-2.867,16.425
			c0.063,0.679,1.174,0.97,1.299,0.176c0.969-6.166,4.955-12.015,7.646-17.607c2.766-5.747,5.286-11.616,7.948-17.414
			c0.389-0.847,0.789-1.666,1.186-2.494c-0.035,0.963-0.074,1.93-0.118,2.903c-2.768,5.942-3.906,12.332-4.909,18.805
			c-1.006,6.493-2.859,13.294-2.043,19.876c0.108,0.873,1.55,1.303,1.718,0.232c0.938-6,3.467-11.39,5.5-17.072
			c2.531-7.071,4.786-13.973,9.175-20.142c3.208-4.51,6.703-8.804,10.302-13.018c-7.969,13.737-14.947,28.969-14.046,44.237
			c0.041,0.694,1.193,0.956,1.299,0.176c1.666-12.308,8.31-22.761,15.52-32.886c-3.803,9.098-6.063,19.041-5.063,28.161
			c0.015,0.133,0.216,0.186,0.251,0.034c2.909-12.715,8.431-23.903,15.322-34.505c7.064-8.733,13.034-18.347,20.098-27.077
			c3.95-4.881,8.248-9.4,12.896-13.623c3.047-2.769,6.453-4.967,9.315-7.794c0.327,0.066,0.693,0.071,1.099-0.013
			c6.783-1.416,13.688-1.775,20.519-2.846c0.784-0.123,0.734-1.374,0-1.535c-5.689-1.251-12.507-2.356-18.465-1.084
			c-7.127-10.532-14.02-21.143-20.71-31.966c-3.114-5.037-5.857-10.237-7.967-15.78c-0.779-2.048-1.176-4.392-1.972-6.487
			c0.08-0.113,0.161-0.224,0.231-0.359c4.277-8.251,10.391-15.55,14.475-23.86c0.207-0.421-0.345-0.936-0.692-0.534
			c-5.497,6.366-12.774,11.822-17.029,19.181c-32.719-2.282-66.06-9.825-89.649-34.404c-4-4.167-8.153-10.223-10.791-16.756
			c-0.003-0.146,0.004-0.289-0.038-0.452c-0.331-1.282-0.834-2.531-1.417-3.753c-2.217-7.717-1.929-15.677,3.478-21.712
			c-1.148,3.121-1.128,6.599,0.613,9.959c2.867,5.534,9.519,8.869,15.983,11.055c-5.28-1.26-9.901-3.528-14.923-5.687
			c-0.634-0.273-1.401,0.482-0.801,1.038c15.218,14.114,40.121,21.277,58.572,10.533c0.696-0.183,1.363-0.406,2.012-0.653
			c-1.87,2.555-4.258,4.451-7.57,4.807c-0.778,0.084-1.135,1.362-0.204,1.508c4.514,0.709,8.65-1.777,11.945-4.704
			c4.208-3.738,5.147-9.605,5.221-15.025c9.022,1.368,18.26,2.04,26.915,3.055c19.687,2.308,39.781,2.989,59.293,6.556
			c16.456,3.008,29.24,18.626,40.557,30.041c9.186,9.265,18.139,21.236,30.637,26.052c1.145,0.441,2.22-1.349,1.231-2.115
			c-4.426-3.426-8.558-7.223-12.554-11.177c2.807,0.33,5.707,0.38,8.293,0.901c0.75,0.151,1.197-0.82,0.526-1.247
			c-4.432-2.822-9.85-3.552-14.509-6.029c-0.132-0.07-0.267-0.083-0.402-0.122c1.099,0.094,2.195,0.153,3.263,0.206
			c4.038,0.203,8.532,0.578,12.457-0.544c0.883-0.253,0.86-1.505,0-1.768c-3.606-1.107-7.464-1.166-11.116-2.198
			c-3.748-1.059-7.05-3.145-10.769-4.199c-0.789-0.224-1.492-0.154-2.091,0.094c-0.359-0.375-0.721-0.743-1.081-1.116
			c1.965,0.342,3.954,0.517,5.874,0.555c5.155,0.101,11.004,0.799,16.073,0.117c0.346-0.047,0.304-0.58,0-0.658
			c-5.14-1.32-10.296-2.955-15.397-4.453c-3.246-0.954-6.151-2.954-9.301-4.044c0.293,0.044,0.594,0.079,0.878,0.131
			c7.139,1.307,14.321,0.359,21.432,1.638c1.184,0.213,1.65-1.408,0.499-1.81c-6.603-2.306-13.638-2.28-20.172-4.831
			c-1.427-0.557-2.879-1.05-4.337-1.528c1.238,0.027,2.454,0.071,3.606,0.178c7.525,0.7,16.1-1.85,23.281,0.404
			c0.418,0.131,0.67-0.486,0.296-0.702c-5.918-3.415-13.665-2.915-20.112-5.204c-2.148-0.763-4.181-1.306-6.179-1.733
			c7.867-0.101,15.64-0.59,23.595-0.742c0.456-0.009,0.551-0.667,0.108-0.796c-6.841-1.988-14.151-3.218-21.315-4.49
			c5.46-0.893,10.778-1.866,16.321-2.147c2.609-0.132,4.592-0.216,6.997-1.347c0.527-0.248,0.255-1.085-0.291-1.073
			c-8.216,0.181-16.894-1.02-25.148-1.306c-5.086-0.176-10.045-0.558-14.981-1.072c3.783-0.24,7.559-0.582,11.331-1.094
			c9.01-1.222,18.471-1.219,27.325-3.027c0.434-0.089,0.42-0.766,0-0.864c-6.693-1.56-13.699-2.149-20.786-2.399
			c7.205-1.199,15.324-1.967,21.946-4.617c0.543-0.217,0.491-1.016-0.142-1.047c-4.613-0.225-9.278-0.21-13.969-0.088
			c-0.096-0.099-0.21-0.183-0.357-0.222c-0.777-0.209-1.559-0.382-2.343-0.546c6.184-1.179,12.169-3.009,17.283-5.91
			c0.646-0.366,0.382-1.467-0.387-1.431c-9.237,0.434-18.329,1.084-27.517,1.396c-0.948-0.118-1.899-0.258-2.852-0.419
			c8.917-0.665,17.968-2.609,25.961-5.155c0.544-0.173,0.485-1.1-0.142-1.047c-8.841,0.749-18.117,0.22-27.216-0.567
			c-1.08-0.275-2.252-0.676-3.462-1.149c4.417-0.115,8.571-0.776,12.922-1.512c7.8,0.206,15.397-0.822,22.179-3.551
			c0.827-0.333,1.263-0.993,1.384-1.688c0.215-0.267,0.344-0.598,0.385-1.01c0.888-8.863-1.402-18.862-2.062-27.702
			c-1.005-13.47-1.821-26.96-1.739-40.473c1.299-16.429,0.929-32.943,0.895-49.485c-0.035-16.89,1.938-33.918,2.165-50.868
			c0.001-0.045,0.001-0.09,0.001-0.136c0.041-3.156,0.011-6.308-0.094-9.456c0.003-0.048,0.012-0.095,0.014-0.143
			c0.004-0.096-0.017-0.177-0.03-0.264c-0.065-1.803-0.159-3.605-0.284-5.405c0.998-1.431,1.826-2.917,2.423-4.336
			c0.481-1.144-1.162-1.813-1.925-1.12c-2.052,1.863-3.701,4.086-5.476,6.199c-1.88,2.238-3.994,4.123-6.327,5.873
			c-0.611,0.459-0.247,1.322,0.509,1.208c2.074-0.311,4.056-1.28,5.854-2.623c-1.984,3.549-3.723,7.18-8.434,7.882
			c-0.492,0.073-0.442,0.836,0,0.946c2.993,0.747,5.853,0.17,8.126-1.81c-0.372,1.501-0.763,2.998-1.188,4.486
			c-2.08,1.965-5.6,2.255-8.196,2.887c-0.661,0.161-0.595,1.082,0,1.275c3.094,1.003,6.519,3.124,9.655,2.478
			c-0.046,0.337-0.087,0.674-0.132,1.011c-0.18-0.005-0.355-0.019-0.552,0.005c-2.784,0.348-5.251,1.536-8.063,1.868
			c-2.682,0.317-5.324,0.221-8.012,0.032c-0.729-0.051-0.855,1.072-0.17,1.257c2.765,0.748,5.566,1.343,8.34,2.057
			c1.276,0.328,2.493,0.776,3.714,1.195c-5.993,1.97-11.837,2.398-18.253,2.536c-0.953,0.02-1.229,1.507-0.232,1.717
			c4.388,0.926,8.91,1.137,13.275,2.09c0.835,0.182,1.616,0.408,2.374,0.625c-0.024,0.006-0.048,0.012-0.072,0.018
			c-0.406-0.038-0.801-0.07-1.165-0.075c-0.364-0.004-0.648,0.247-0.792,0.558c-1.331,0.311-2.678,0.57-4.077,0.67
			c-4.006,0.287-8.059-0.285-12.04-0.71c-0.797-0.085-1.17,1.233-0.42,1.55c4.064,1.716,8.324,2.63,12.634,3.523
			c0.116,0.024,0.239,0.052,0.356,0.076c-1.119,0.22-2.246,0.41-3.393,0.512c-4.375,0.389-8.731-0.181-13.12,0.362
			c-1.099,0.136-1.148,1.667,0,1.749c4.466,0.318,8.8,1.197,13.154,1.921c-5.865,0.865-11.754,2.228-17.704,1.806
			c-0.529-0.037-0.783,0.812-0.28,1.033c4.306,1.896,9.347,3.025,14.469,3.636c-1.233,0.095-2.466,0.215-3.695,0.396
			c-5.871,0.863-11.474,2.219-17.47,1.692c-0.567-0.05-0.579,0.744-0.125,0.922c5.755,2.251,11.844,2.165,17.907,2.964
			c2.482,0.327,4.888,0.655,7.281,0.882c0.302,0.081,0.603,0.165,0.904,0.249c-10.787,1.793-23.138,2.122-33.549,0.9
			c-0.727-0.085-0.786,1.002-0.165,1.215c5.002,1.717,10.642,3.045,16.107,4.055c-5.325-0.104-10.647-0.524-15.942-1.041
			c-0.208-0.02-0.372,0.044-0.512,0.14c-5.513-1.03-11.886-1.519-16.708-4.215c1.647-4.861,2.05-10.025,2.555-15.219
			c1.144-11.785,2.735-23.521,4.351-35.249c1.418-10.294,3.664-19.974,6.583-29.942c2.683-9.162,4.033-18.528,6.2-27.77
			c0.173-0.139,0.313-0.317,0.434-0.51c14.105,4.999,31.186,6.648,45.928,5.155c0.65-0.066,0.944-1.151,0.17-1.257
			c-15.141-2.065-30.515-3.906-45.212-8.252c2.768-9.194,6.765-17.914,9.643-27.086c3.461-11.027,4.481-21.701,9.992-32.131
			c4.592-8.69,13.021-15.821,21.832-20.141c7.57-3.712,17.951-1.505,22.306,6.265c2.53,4.514,2.91,10.178,3.268,15.223
			c1.61,22.743-4.979,45.746-7.086,68.351c-1.998,21.425-5.784,41.981-5.282,63.391c-0.403,3.722-0.791,7.448-1.123,11.184
			c-1.266,14.267-0.93,28.563-0.665,42.868c0.528,28.528-1.019,57.594,1.465,86.014c1.191,13.633,4.375,26.984,4.55,40.701
			c0.181,14.187,1.147,28.268,2.042,42.421c1.703,26.928,10.2,52.264,12.15,79.158c0.332,15.214-0.014,30.528-0.921,45.7
			c-1.039,17.382-3.433,34.683-5.651,51.946c-2.401,18.687-4.781,35.781-13.812,52.591c-7.972,14.839-16.78,30.387-33.455,35.983
			c-14.928,5.01-30.094,8.779-45.228,13.067c-9.141,2.59-17.488,3.922-26.939,2.052c-7.41-1.466-14.634-3.958-21.846-6.164
			C578.181,892.263,570.819,885.454,566.033,876.44z M399.997,564.882c9.183-2.608,18.789-0.863,27.982,0.797
			c0.044,0.207,0.089,0.415,0.133,0.621c0.927,4.303,1.688,8.629,2.376,12.965c-0.731-1.353-1.648-2.658-2.879-3.894
			c-4.29-4.309-9.776-7.201-15.902-7.472c-0.641-0.028-0.794,1-0.153,1.131c12.34,2.523,14.592,15.962,20.238,25.226
			c-4.234-6.794-10.123-12.451-16.054-18.438c-0.675-0.682-1.983,0.245-1.373,1.06c3.812,5.092,8.309,9.744,11.586,15.212
			c2.93,4.888,5.024,10.119,7.272,15.319c-4.357-7.643-10.892-14.539-17.272-19.106c-0.682-0.488-1.567,0.641-0.905,1.172
			c7.022,5.631,11.725,14.349,15.355,23.014c-2.623-2.756-5.505-5.12-8.45-6.819c-1.051-0.607-1.842,0.891-0.926,1.584
			c6.873,5.196,9.345,12.32,12.417,19.481c-3.218-2.874-6.729-5.368-10.288-7.367c-0.686-0.385-1.208,0.584-0.603,1.031
			c7.525,5.559,11.754,12.869,16.353,20.374c-3.943-3.621-8.2-6.916-12.501-9.914c-0.668-0.465-1.526,0.626-0.879,1.139
			c6.814,5.396,11.705,12.599,17.506,18.893c-3.083-2.461-6.239-4.779-9.868-6.5c-0.689-0.327-1.256,0.609-0.603,1.031
			c5.882,3.798,11.08,9.216,15.921,14.703c-2.983-1.563-6.026-2.844-8.841-3.821c-0.721-0.25-1.232,0.923-0.526,1.247
			c4.45,2.043,8.407,4.796,11.93,8.207c1.017,0.984,1.937,2.056,2.836,3.146c-2.562-1.116-5.135-2.193-7.327-4.023
			c-0.684-0.571-1.658,0.356-0.995,0.995c2.775,2.673,6.232,4.312,9.35,6.523c2.342,1.661,4.22,3.722,5.971,5.906
			c-1.137-0.735-2.284-1.448-3.442-2.117c-0.872-0.504-1.934,0.755-1.111,1.44c4.54,3.781,8.533,7.971,12.099,12.566
			c2.937,5.946,5.66,12.048,8.774,17.858c-0.02,0.359,0.051,0.746,0.263,1.147c2.64,4.997,1.798,11.359-0.902,16.106
			c-3.455,6.075-9.206,8.191-15.299,6.622c2.988-1.186,5.722-3.091,7.638-5.627c2.844-3.085,4.451-7.388,4.452-11.576
			c0.001-8.85-7.397-15.684-13.801-20.757c-0.757-0.599-1.657,0.298-1.056,1.056c1.936,2.44,3.985,5.587,5.64,9.019
			c-4.929-6.418-11.958-12.287-19.23-14.05c-1.248-0.303-2.404-0.421-3.488-0.41c1.931-0.748,4.031-0.978,6.219-0.535
			c2.397,0.486,4.164,2.17,6.61,2.349c0.659,0.048,1.02-0.877,0.543-1.311c-5.853-5.326-14.291-7.975-20.837-2.028
			c-4.589,4.168-6.11,12.645-2.962,18.21c0.024,0.149,0.036,0.299,0.063,0.449c0.123,0.67,0.534,2.082,1.154,3.818
			c-7.384-8.676-10.811-19.532-14.737-30.067c-3.419-9.174-7.663-17.937-11.99-26.711c-5.094-10.328-10.513-20.722-13.707-31.831
			c-2.748-9.557-4.339-19.58-6.242-29.336C383.036,579.802,386.299,568.772,399.997,564.882z M497.026,357.346
			c-0.211-8.322-0.523-17.343,0.026-25.702c4.34,1.6,9.754,0.918,14.184,0.982c9.538,0.139,18.747-2.529,28.235-3.206
			c1.116-0.08,1.076-1.576,0-1.706c-14.201-1.717-28.598,2.411-42.803-0.981c-0.192-7.844-1.352-15.603-2.138-23.494
			c-1.049-10.529-1.489-21.219-1.719-31.797c-0.206-9.492-1.469-19.484,1.345-28.702c0.983-3.219,2.417-7.333,4.424-11.085
			c8.812-9.192,20.9-14.761,34.144-10.913c17.308,5.029,15.756,23.218,17.61,37.746c1.983,15.538,4.262,31.26,6.944,46.713
			c1.985,11.438,2.73,23.452,4.804,35.014c0.615,6.18,1.399,12.307,2.449,18.5c3.754,22.15,6.45,44.415,8.721,66.76
			c2.035,20.016,2.81,40.336,6.628,60.122c1.949,10.098,4.743,19.983,7.331,29.928c1.86,7.151,3.288,14.506,5.049,21.721
			c-1.607-2.849-2.919-5.969-4.305-8.641c-1.924-3.709-3.535-7.654-5.215-11.556c-1.5-5.084-2.911-10.206-4.13-15.423
			c-3.783-16.198-6.305-32.472-8.287-48.979c-1.631-13.582-3.177-27.138-4.055-40.798c-0.79-12.298-0.651-25.451-4.399-37.367
			c0.169-0.675,0.33-1.355,0.417-2.091c0.225-1.896-2.509-2.309-3.378-0.915c-1.416,2.27-2.151,4.894-3.515,7.207
			c-1.626,2.756-4.041,4.929-6.534,6.889c-0.512,0.402,0.043,1.338,0.643,1.105c3.529-1.372,6.622-3.22,8.91-5.734
			c-0.91,1.547-1.72,3.176-2.823,4.575c-2.182,2.766-4.946,4.822-8.445,5.488c-0.479,0.091-0.497,0.911,0,0.987
			c3.768,0.576,7.669-0.28,10.75-2.567c0.261-0.194,0.489-0.409,0.727-0.618c-0.915,1.876-1.947,3.679-2.769,5.606
			c-1.407,3.302-6.751,2.927-9.886,3.728c-0.521,0.133-0.681,0.96-0.158,1.208c2.27,1.079,4.522,1.607,6.871,1.961
			c-3.519,1.046-6.988,2.457-10.506,3.327c-1.425,0.352-1.001,2.319,0.329,2.43c3.191,0.265,6.431,0.367,9.585,0.967
			c0.029,0.006,0.056,0.014,0.085,0.02c-1.734,0.435-3.465,0.948-5.265,1.434c-4.469,1.206-8.957,1.973-13.282,3.688
			c-0.828,0.328-0.836,1.833,0.232,1.717c5.312-0.576,10.514,0.074,15.736,0.599c-2.231,0.624-4.456,1.31-6.744,1.877
			c-5.275,1.308-10.432,2.375-15.446,4.532c-0.556,0.239-0.282,1.214,0.312,1.152c6.18-0.643,12.338-0.092,18.5,0.468
			c-1.646,0.508-3.247,1.01-4.758,1.382c-7.297,1.794-14.549,3.24-21.387,6.46c-0.791,0.372-0.196,1.463,0.559,1.325
			c7.543-1.378,14.901-1.12,22.495-0.858c-9.941,2.223-19.906,4.41-29.967,5.696c-1.057,0.135-1.08,1.548,0,1.663
			c6.654,0.709,13.775,1.393,20.931,1.592c-3.612,1.044-7.239,2.119-10.886,2.946c-4.798-0.13-14.483,1.061-17.974-1.762
			c-0.11-0.089-0.225-0.128-0.337-0.196c-0.126-0.185-0.275-0.342-0.458-0.475c-0.66-18.391-4.497-36.672-6.214-54.964
			C497.322,376.738,497.271,366.977,497.026,357.346z M535.908,497.063c6.367-0.027,11.927,1.05,17.897,2.171
			c-7.146,1.208-14.273,3.546-21.173,4.538c-0.399,0.057-0.271,0.649,0.091,0.67c7.312,0.434,14.19,1.228,21.219,2.976
			c-0.421,0.056-0.841,0.11-1.264,0.17c-7.232,1.028-14.954,1.307-21.991,3.238c-0.869,0.238-0.713,1.618,0.216,1.592
			c5.999-0.167,12.529,1.161,18.514,1.843c1.37,0.156,2.762,0.316,4.161,0.487c-9.179,0.632-18.251,2.221-27.452,2.774
			c-0.725,0.044-0.978,1.182-0.181,1.34c8.145,1.615,16.417,2.514,24.609,3.885c-9.018,0.409-18.169,0.118-26.929,0.333
			c-0.88,0.022-1.143,1.403-0.216,1.592c9.246,1.885,18.524,3.675,27.783,5.5c0.171,0.034,0.339,0.065,0.51,0.098
			c-10.25,0.639-20.611,0.577-30.438-1.207c-0.564-0.102-0.971,0.662-0.411,0.974c6.496,3.617,13.857,5.787,21.244,7.361
			c-7.446,0.239-14.781-0.138-21.669-2.233c-1.012-0.308-1.394,1.207-0.431,1.563c7.351,2.718,14.816,5.28,22.393,7.119
			c-9.788-0.146-18.707-2.445-27.712-5.753c-0.953-1.581-1.892-3.172-2.863-4.742c0.414-13.494-3.967-27.87-4.957-41.256
			c-1.072-14.498-2.563-29.988-1.893-44.65c3.98,1.597,10.238,0.83,13.568,0.815c0.097,0.044,0.201,0.073,0.314,0.073
			c7.284,0.017,15.48,0.446,23.454,1.552c-6.488,0.805-13.253,1.554-19.064,4.644c-0.635,0.338-0.384,1.53,0.388,1.431
			c6.629-0.851,12.872,0.273,19.298,0.958c-2.668,0.669-5.275,1.524-7.565,2.954c-0.527,0.329-0.328,1.198,0.323,1.192
			c5.885-0.057,11.539,0.292,17.151,1.378c-0.223,0.072-0.447,0.15-0.668,0.216c-3.542,1.065-7.1,2.057-10.488,3.559
			c-1.266,0.561-0.35,2.51,0.92,2.183c4.663-1.2,8.721-0.186,12.871,0.765c-4.26,1.677-8.68,2.726-12.927,4.436
			c-0.68,0.274-0.694,1.536,0.193,1.424c4.413-0.555,8.228-0.316,12.385,0.871c-4.739,1.539-9.233,3.031-14.17,4.074
			c-0.819,0.173-0.605,1.407,0.193,1.424c4.742,0.102,9.183-0.107,13.854,0.99c0.345,0.081,0.688,0.14,1.033,0.212
			c-1.432,0.397-2.859,0.843-4.289,1.311c-5.2,1.703-10.468,2.649-15.699,4.146c-0.357,0.102-0.332,0.586,0,0.699
			c4.258,1.451,8.789,1.052,13.234,1.226c2.201,0.086,4.42,0.174,6.614,0.37c1.05,0.074,2.094,0.199,3.134,0.35
			c-0.579,0.115-1.149,0.23-1.704,0.338c-7.031,1.366-15.271,1.796-21.645,5.15C535.253,496.409,535.455,497.065,535.908,497.063z
			 M512.171,541.872c1.585,2.263,3.386,4.361,5.365,6.297c1.468,1.524,2.997,2.961,4.609,4.27c0.142,0.115,0.307,0.116,0.459,0.076
			c0.224,0.168,0.439,0.348,0.666,0.513c7.396,5.383,15.769,6.413,24.345,9.061c0.491,0.152,0.803-0.583,0.351-0.831
			c-3.805-2.092-7.941-3.497-11.957-5.132c-0.007-0.004-0.009-0.01-0.016-0.014c-3.523-2.045-6.732-4.302-9.424-7.39
			c-1.648-1.891-3.449-3.562-5.25-5.25c4.009,2.005,8.191,3.645,12.491,4.935c13.575,5.448,28.367,7.018,42.672,4.837
			c0.172,0.01,0.339,0.03,0.52,0.017c0.577-0.041,1.17-0.091,1.766-0.148c7.047-0.108,14.5-1.439,20.101-3.778
			c-13.393,8.199-29.514,10.957-45.902,9.813c-0.82-0.057-0.853,1.086-0.181,1.34c6.203,2.349,14.931,3.882,23.175,4.05
			c-3.089,0.787-6.131,1.653-9.022,2.773c-0.607,0.235-0.366,1.044,0.265,0.96c12.259-1.651,27.235-1.34,37.889-8.709
			c4.791-3.314,8.151-8.189,10.613-13.581c0.993-1.349,1.88-2.74,2.61-4.176c0.502-0.986,0.46-2.029,0.096-2.934
			c1.163-3.696,2.031-7.426,2.747-10.905c2.955-14.37,7.794-28.69,11.471-42.941c3.493-13.538,3.924-29.543,9.636-42.432
			c4.279,2.388,12.472,3.02,14.906,3.495c4.494,0.877,9.19,1.824,13.931,2.448c4.884,1.322,9.766,2.642,14.673,3.885
			c-5.532-0.416-11.149-0.315-16.568-0.349c-0.816-0.005-0.77,1.146,0,1.237c6.592,0.774,12.927,3.007,19.265,5.202
			c-4.947-0.165-10.006,0.53-14.402,1.4c-0.509,0.101-0.508,0.926,0,1.028c5.088,1.022,9.581,3.561,14.342,5.52
			c0.178,0.073,0.359,0.152,0.541,0.229c-0.763,0.084-1.523,0.173-2.279,0.268c-5.121-0.344-10.319,0.046-14.964,0.647
			c-0.555,0.072-0.826,0.969-0.147,1.089c5.589,0.99,10.707,3.205,16.076,4.979c1.175,0.389,2.343,0.763,3.499,1.146
			c-4.84-0.073-9.73,0.066-14.475-0.701c-0.836-0.135-1.16,0.978-0.352,1.275c6.553,2.412,13.047,3.998,19.262,6.671
			c-0.982-0.074-1.976-0.134-3.002-0.173c-6.822-0.261-13.589-1.553-20.406-0.716c-0.408,0.05-0.602,0.709-0.108,0.796
			c7.441,1.31,14.178,3.316,20.756,6.111c-0.445-0.044-0.885-0.093-1.338-0.128c-7.526-0.582-15.675-1.557-23.091,0.164
			c-0.522,0.121-0.493,0.891,0,1.028c9.116,2.531,18.495,4.228,27.011,8.176c-1.228-0.189-2.474-0.344-3.739-0.482
			c-8.111-0.887-16.341-1.415-24.495-1.604c-1.499-0.035-1.393,2.075,0,2.26c7.886,1.052,15.43,3.171,22.634,6.216
			c-8.202-0.561-16.502-0.776-24.681-0.565c-0.94,0.024-0.926,1.39,0,1.45c8.489,0.554,16.06,2.87,23.845,6.129
			c0.035,0.015,0.076,0.029,0.111,0.043c-2.907-0.166-5.817-0.165-8.736-0.288c-5.412-0.228-10.705-1.313-16.13-0.923
			c-0.713,0.051-0.99,1.205-0.181,1.34c8.609,1.442,18.419,4.105,27.022,8.145c-0.453-0.075-0.902-0.156-1.362-0.222
			c-9.521-1.352-19.728-3.296-29.346-2.745c-0.585,0.034-0.742,0.881-0.142,1.047c8.541,2.362,16.441,4.136,24.488,8.028
			c1.432,0.692,2.834,1.423,4.251,2.135c-10.071-1.91-20.397-2.413-30.998-3.908c-1.529-0.216-2.234,1.927-0.657,2.385
			c8.293,2.415,16.738,4.377,24.855,7.366c1.036,0.381,2.057,0.789,3.071,1.213c-0.54-0.082-1.073-0.181-1.621-0.247
			c-10.53-1.27-21.154-1.045-31.454-3.917c-0.834-0.232-1.446,1.073-0.608,1.442c8.069,3.558,16.411,5.856,24.79,8.54
			c4.252,1.362,8.357,3.036,12.424,4.799c-14.101-1.552-28.617-5.825-41.895-10.709c-0.664-0.244-0.92,0.694-0.444,1.052
			c7.836,5.903,16.974,10.906,26.609,14.582c-0.514-0.106-1.023-0.186-1.539-0.304c-10.035-2.298-21.938-4.402-30.076-11.071
			c-0.859-0.704-2.01,0.391-1.237,1.237c3.628,3.965,8.446,6.885,13.562,9.335c-0.495-0.084-0.995-0.174-1.489-0.257
			c-8.649-1.452-15.82-5.235-23.98-7.72c-0.934-0.624-1.861-1.257-2.759-1.931c-0.877-0.658-2.208,0.436-1.859,1.429
			c0.937,2.666,3,4.724,5.561,6.393c3.358,3.687,7.161,7.235,11.196,10.479c-5.925-1.516-11.656-3.494-16.206-7.212
			c-0.651-0.532-1.514,0.292-0.935,0.935c4.884,5.425,11.652,9.335,18.598,12.496c-0.788,0-1.57-0.009-2.339-0.026
			c-7.4-1.691-14.856-3.278-22.16-4.244c-0.414-0.055-0.529,0.57-0.204,0.755c11.034,6.279,22.67,11.373,34.808,15.009
			c-0.432,0.059-0.864,0.119-1.295,0.179c-5.384-0.452-10.784-0.937-16.128-1.579c-9.124-1.096-17.443-4.221-26.314-6.014
			c-0.907-0.183-1.293,1.142-0.385,1.398c10.458,2.954,20.3,7.299,30.514,10.649c-2.124-0.355-4.248-0.714-6.371-1.077
			c-0.403-0.123-0.81-0.218-1.211-0.348c-0.525-0.17-1.016-0.19-1.472-0.116c-12.734-2.202-25.441-4.608-37.981-7.738
			c-0.477-0.119-0.812,0.58-0.345,0.818c9.09,4.651,19.06,8.719,29.133,12.122c-3.17-0.261-6.341-0.53-9.509-0.842
			c-11.676-1.985-23.259-4.377-34.531-8.191c-0.429-0.145-0.733,0.549-0.312,0.741c12.354,5.637,25.178,10.075,38.161,14.062
			c-0.859-0.071-1.714-0.166-2.571-0.246c-0.454-0.076-0.906-0.162-1.36-0.237c-19.596-3.214-38.361-9.093-57.062-15.663
			c-0.665-0.234-1.084,0.794-0.477,1.13c4.688,2.594,9.398,5.297,14.167,7.919c-6.776-1.397-13.539-2.87-20.114-5.277
			c-6.764-2.476-13.128-5.871-19.488-9.224c-3.734-1.969-9.55-4.3-13.72-7.271c7.582,3.787,16.187,6.299,23.794,8.6
			c0.828,0.25,1.36-0.985,0.591-1.403c-9.597-5.218-18.253-11.441-26.949-18.02c-0.646-0.489-1.243-1.009-1.841-1.53
			c-2.257-3.185-4.489-6.389-7.048-9.341c-0.579-0.668-1.148-1.376-1.714-2.095c-3.013-5.155-5.663-10.466-6.747-16.209
			c-0.11-0.58-1.1-0.6-1.193,0c-0.367,2.382-0.375,4.818-0.112,7.263c-0.082,0.091-0.15,0.199-0.164,0.332
			c-0.606,5.615,1.817,11.185,2.713,16.711c1.409,8.687,1.964,17.237,2.297,26.002c-1.417,0.325-2.793,0.8-4.112,1.443
			c-0.769-7.421-6.411-14.66-10.549-20.469c-5.049-7.089-10.755-13.451-17.675-18.762c-0.562-0.431-1.247,0.493-0.749,0.971
			c12.113,11.629,17.803,25.992,24.891,40.728c0.034,0.07,0.088,0.108,0.127,0.171c-0.36,0.314-0.713,0.643-1.058,0.993
			c-1.212-4.174-4.648-8.111-7.123-11.279c-3.968-5.079-8.356-9.59-13.606-13.349c-0.534-0.383-1.17,0.462-0.698,0.904
			c4.491,4.205,8.357,9.047,11.41,14.395c2.494,4.368,3.992,9.251,6.491,13.571c0.031,0.054,0.077,0.084,0.111,0.134
			c-0.056,0.09-0.105,0.181-0.16,0.271c-2.966-4.453-8.024-7.938-12.139-10.868c-0.55-0.392-1.232,0.491-0.723,0.938
			c2.261,1.986,4.551,4.013,6.488,6.327c1.9,2.269,3.117,4.799,4.485,7.351c-0.1,0.247-0.212,0.492-0.303,0.74
			c-0.545-0.606-1.102-1.168-1.606-1.659c-2.033-1.979-4.424-3.361-7.084-4.326c-0.812-0.294-1.203,0.889-0.559,1.325
			c2.141,1.448,4.034,3.337,5.575,5.413c0.928,1.25,1.55,2.891,2.402,4.267c-0.18,1.221-0.274,2.452-0.286,3.687
			c-1.601-1.382-3.325-2.585-5.128-3.491c-0.855-0.43-1.575,0.777-0.754,1.289c3.055,1.906,4.801,4.674,6.323,7.622
			c0.273,1.632,0.665,3.261,1.163,4.879c-2.221-1.517-4.592-2.784-7.001-3.754c-0.423-0.17-0.728,0.548-0.312,0.741
			c4.02,1.863,6.961,4.974,9.418,8.519c0.721,1.587,1.529,3.15,2.408,4.682c-4.029-2.887-8.323-5.27-12.835-7.667
			c-0.283-0.151-0.642,0.252-0.362,0.469c5.834,4.508,10.77,9.258,15.55,14.85c3.052,3.571,6.841,6.267,10.309,9.366
			c2.844,4.746,5.038,9.771,7.314,14.823c3.029,6.724,7.664,12.333,10.773,18.95c5.922,12.603,8.366,35.546,2.809,48.56
			c-4.092,9.583-12.305,15.804-22.617,10.948c-1.659-0.781-3.14-1.749-4.488-2.852c4.47-1.197,8.923-2.831,12.175-5.488
			c-1.256,2.118-3.119,3.869-5.495,5.501c-0.452,0.31-0.26,0.941,0.269,0.993c5.188,0.513,9.63-3.969,11.281-8.548
			c1.856-5.147,0.194-10.458-2.15-15.252c-0.503-1.809-1.162-3.634-1.946-5.443c2.597,3.63,4.786,7.403,5.929,10.886
			c0.191,0.581,1.089,0.498,1.089-0.147c0.004-7.139-5.362-14.508-9.359-20.09c-4.406-6.154-9.088-10.531-16.144-13.59
			c-4.167-1.806-9.227-2.618-13.091,0.308c-3.891,2.947-4.377,7.38-3.876,11.773c0.012,1.357,0.173,2.74,0.441,4.137
			c-2.821-5.217-5.813-10.347-9.242-15.293c-8.657-12.488-18.228-25.338-20.97-40.594c-2.91-16.19-3.921-32.807-6.084-49.114
			c-1.999-15.075-8.863-31.016-5.031-46.285c1.441-5.743,3.962-12.394,6.623-17.674c3.992-7.92,12.132-11.388,20.329-13.898
			c14.501-4.44,29.337-3.415,37.504,10.536C500.412,523.047,505.624,533.253,512.171,541.872z M557.39,592.526
			c-1.223,17.671-25.627,10.572-37.161,8.167c-10.447-2.178-35.754-10.353-24.116-24.502c6.96-2.808,15.359,0.423,22.088,3.036
			c7.327,2.845,14.634,5.756,21.945,8.642C545.583,590.015,551.412,591.46,557.39,592.526z M489.853,718.416
			c-2.534-2.928-4.55-6.359-6.394-9.876c-1.981-3.779-3.885-7.57-5.797-11.344c-0.123-2.684-0.758-5.337-1.214-8.033
			c-0.877-5.183-2.297-12.064,4.991-14.238c4.797-1.431,9.211,1.89,12.378,4.937c4.822,4.639,8.112,10.952,10.422,17.169
			c0.21,0.565,0.41,1.13,0.603,1.695c0.336,1.532,0.778,3.037,1.185,4.55c0.624,4.041-0.241,7.897-4.973,11.183
			C497.916,716.638,493.523,717.302,489.853,718.416z M432.77,595.922c-0.316-0.558-0.635-1.114-0.973-1.656
			c0.308,0.505,0.621,1.002,0.951,1.479C432.755,595.803,432.763,595.862,432.77,595.922z M456.046,729.714
			c-5.992-3.328-12.036-7.704-17.309-12.514c-1.487-3.119-2.767-6.793-3.02-7.835c-1.143-4.702-2.482-11.923,2.688-14.868
			c3.284-1.871,7.518,0.139,10.378,1.794c5.316,3.076,10.275,7.927,13.708,13.016c1.943,2.881,4.465,7.077,4.202,10.65
			C466.309,725.148,460.497,727.673,456.046,729.714z M705.123,457.961c0.048-0.004,0.096-0.008,0.144-0.011
			c-0.001,0.015-0.002,0.032-0.003,0.047C705.218,457.982,705.169,457.974,705.123,457.961z"/>
		<path id="XMLID_388_" style="fill:#EFE8CE;" d="M462.49,709.307c-3.433-5.089-8.392-9.94-13.708-13.016
			c-2.86-1.655-7.094-3.664-10.378-1.794c-5.169,2.944-3.831,10.166-2.688,14.868c0.253,1.042,1.533,4.716,3.02,7.835
			c5.273,4.811,11.318,9.187,17.309,12.514c4.451-2.041,10.263-4.566,10.645-9.757C466.955,716.384,464.433,712.188,462.49,709.307z
			 M458.08,723.983c-6.162,2.177-10.376-3.477-13.587-7.766c-3.277-4.378-5.349-9.805-6.395-15.164
			c-0.121-0.619,0.691-1.277,1.176-0.685c2.937,3.581,3.686,8.238,8.186,10.422c3.589,1.742,6.95,3.65,10.62,5.173
			C461.842,717.525,462.177,722.535,458.08,723.983z"/>
		<path id="XMLID_385_" style="fill:#EFE8CE;" d="M506.027,703.276c-0.407-1.513-0.849-3.018-1.185-4.55
			c-0.193-0.565-0.393-1.13-0.603-1.695c-2.31-6.217-5.6-12.53-10.422-17.169c-3.167-3.047-7.581-6.368-12.378-4.937
			c-7.289,2.174-5.868,9.055-4.991,14.238c0.456,2.697,1.092,5.349,1.214,8.033c1.912,3.775,3.816,7.565,5.797,11.344
			c1.843,3.517,3.859,6.948,6.394,9.876c3.67-1.114,8.062-1.779,11.201-3.957C505.787,711.174,506.651,707.317,506.027,703.276z
			 M499.321,709.516c-4.587,6.929-11.552,1.725-14.06-3.963c-1.176-2.668-1.568-5.26-2.119-8.095
			c-0.42-2.16-1.395-4.165-1.684-6.349c-0.309-2.339,0.049-4.598-0.369-6.952c-0.089-0.503,0.58-0.847,0.857-0.362
			c1.577,2.757,2.315,5.775,4.506,8.162c1.615,1.759,3.225,3.189,4.448,5.273c0.834,1.421,1.561,2.878,2.442,4.276
			c0.177,0.281,0.623,0.793,0.962,1.256C497.75,701.732,501.483,706.25,499.321,709.516z"/>
		<path id="XMLID_384_" style="fill:#EFE8CE;" d="M432.77,595.922c-0.007-0.059-0.015-0.118-0.022-0.177
			c-0.33-0.477-0.644-0.975-0.951-1.479C432.135,594.808,432.454,595.364,432.77,595.922z"/>
		<path id="XMLID_379_" style="fill:#EFE8CE;" d="M405.478,653.756c4.327,8.773,8.571,17.537,11.99,26.711
			c3.926,10.535,7.354,21.391,14.737,30.067c-0.62-1.736-1.031-3.148-1.154-3.818c-0.027-0.149-0.039-0.299-0.063-0.449
			c-3.149-5.565-1.627-14.041,2.962-18.21c6.546-5.946,14.984-3.298,20.837,2.028c0.477,0.434,0.116,1.359-0.543,1.311
			c-2.446-0.179-4.212-1.863-6.61-2.349c-2.188-0.443-4.287-0.213-6.219,0.535c1.084-0.01,2.24,0.108,3.488,0.41
			c7.271,1.763,14.301,7.632,19.23,14.05c-1.655-3.431-3.704-6.579-5.64-9.019c-0.601-0.758,0.299-1.655,1.056-1.056
			c6.404,5.072,13.802,11.906,13.801,20.757c0,4.188-1.608,8.491-4.452,11.576c-1.916,2.536-4.65,4.441-7.638,5.627
			c6.093,1.568,11.845-0.547,15.299-6.622c2.7-4.747,3.541-11.109,0.902-16.106c-0.212-0.401-0.283-0.787-0.263-1.147
			c-3.114-5.81-5.837-11.911-8.774-17.858c-3.567-4.596-7.559-8.785-12.099-12.566c-0.822-0.685,0.239-1.944,1.111-1.44
			c1.158,0.669,2.305,1.382,3.442,2.117c-1.751-2.184-3.629-4.245-5.971-5.906c-3.118-2.211-6.575-3.85-9.35-6.523
			c-0.663-0.639,0.311-1.566,0.995-0.995c2.192,1.831,4.765,2.908,7.327,4.023c-0.899-1.091-1.819-2.162-2.836-3.146
			c-3.523-3.411-7.48-6.164-11.93-8.207c-0.706-0.324-0.196-1.498,0.526-1.247c2.815,0.977,5.858,2.258,8.841,3.821
			c-4.841-5.487-10.039-10.905-15.921-14.703c-0.654-0.422-0.086-1.358,0.603-1.031c3.628,1.721,6.785,4.039,9.868,6.5
			c-5.801-6.293-10.692-13.496-17.506-18.893c-0.647-0.513,0.211-1.604,0.879-1.139c4.301,2.998,8.558,6.294,12.501,9.914
			c-4.599-7.505-8.828-14.815-16.353-20.374c-0.605-0.447-0.083-1.416,0.603-1.031c3.559,1.999,7.07,4.493,10.288,7.367
			c-3.072-7.161-5.544-14.285-12.417-19.481c-0.916-0.693-0.126-2.19,0.926-1.584c2.945,1.699,5.827,4.062,8.45,6.819
			c-3.629-8.665-8.333-17.384-15.355-23.014c-0.662-0.531,0.222-1.661,0.905-1.172c6.38,4.567,12.915,11.462,17.272,19.106
			c-2.248-5.199-4.342-10.431-7.272-15.319c-3.278-5.468-7.774-10.12-11.586-15.212c-0.61-0.815,0.698-1.741,1.373-1.06
			c5.932,5.987,11.821,11.644,16.054,18.438c-5.646-9.264-7.897-22.703-20.238-25.226c-0.641-0.131-0.487-1.159,0.153-1.131
			c6.125,0.271,11.611,3.162,15.902,7.472c1.231,1.236,2.148,2.541,2.879,3.894c-0.688-4.336-1.449-8.662-2.376-12.965
			c-0.044-0.206-0.089-0.414-0.133-0.621c-9.192-1.661-18.799-3.405-27.982-0.797c-13.698,3.89-16.961,14.921-14.468,27.707
			c1.903,9.756,3.494,19.779,6.242,29.336C394.966,633.034,400.384,643.428,405.478,653.756z M427.906,662.85
			c-2.786,2.71-5.078,5.934-6.707,9.465c-0.76,1.648-3.276,0.21-2.455-1.435c1.962-3.93,4.742-6.678,8.559-8.811
			C427.794,661.794,428.316,662.451,427.906,662.85z M414.933,665.952c4.66-5.053,10.029-10.689,16.675-12.949
			c0.786-0.267,1.272,0.942,0.559,1.325c-6.332,3.407-9.595,9.469-15.042,13.815C415.594,669.365,413.55,667.451,414.933,665.952z
			 M392.491,600.506c5.07,5.862,10.201,12.003,14.202,18.656c0.649,1.079-0.981,2.394-1.775,1.37
			c-4.781-6.17-8.875-12.915-13.365-19.302C391.161,600.673,392.052,599.999,392.491,600.506z"/>
		<path id="XMLID_376_" style="fill:#EFE8CE;" d="M557.316,491.038c0.555-0.108,1.126-0.223,1.704-0.338
			c-1.04-0.151-2.084-0.276-3.134-0.35c-2.194-0.196-4.414-0.284-6.614-0.37c-4.444-0.174-8.976,0.225-13.234-1.226
			c-0.332-0.113-0.357-0.597,0-0.699c5.231-1.497,10.499-2.443,15.699-4.146c1.43-0.468,2.857-0.914,4.289-1.311
			c-0.344-0.073-0.688-0.132-1.033-0.212c-4.671-1.097-9.113-0.889-13.854-0.99c-0.798-0.017-1.011-1.251-0.193-1.424
			c4.938-1.043,9.431-2.535,14.17-4.074c-4.157-1.187-7.973-1.426-12.385-0.871c-0.887,0.111-0.872-1.151-0.193-1.424
			c4.247-1.71,8.666-2.758,12.927-4.436c-4.151-0.952-8.209-1.965-12.871-0.765c-1.271,0.327-2.186-1.622-0.92-2.183
			c3.389-1.502,6.946-2.494,10.488-3.559c0.221-0.066,0.446-0.144,0.668-0.216c-5.612-1.086-11.266-1.434-17.151-1.378
			c-0.651,0.006-0.85-0.863-0.323-1.192c2.29-1.43,4.897-2.285,7.565-2.954c-6.426-0.685-12.669-1.809-19.298-0.958
			c-0.772,0.099-1.023-1.093-0.388-1.431c5.812-3.09,12.576-3.839,19.064-4.644c-7.974-1.107-16.169-1.535-23.454-1.552
			c-0.114,0-0.217-0.03-0.314-0.073c-3.33,0.015-9.587,0.782-13.568-0.815c-0.67,14.662,0.821,30.152,1.893,44.65
			c0.99,13.386,5.371,27.762,4.957,41.256c0.971,1.57,1.91,3.16,2.863,4.742c9.005,3.308,17.923,5.607,27.712,5.753
			c-7.577-1.839-15.042-4.401-22.393-7.119c-0.964-0.356-0.581-1.871,0.431-1.563c6.888,2.095,14.223,2.472,21.669,2.233
			c-7.387-1.574-14.748-3.743-21.244-7.361c-0.561-0.312-0.153-1.077,0.411-0.974c9.827,1.784,20.188,1.847,30.438,1.207
			c-0.171-0.034-0.338-0.064-0.51-0.098c-9.259-1.825-18.538-3.615-27.783-5.5c-0.927-0.189-0.664-1.57,0.216-1.592
			c8.761-0.215,17.912,0.075,26.929-0.333c-8.191-1.371-16.463-2.27-24.609-3.885c-0.797-0.158-0.544-1.297,0.181-1.34
			c9.201-0.553,18.273-2.141,27.452-2.774c-1.399-0.172-2.792-0.331-4.161-0.487c-5.984-0.682-12.514-2.01-18.514-1.843
			c-0.928,0.026-1.084-1.353-0.216-1.592c7.037-1.931,14.759-2.211,21.991-3.238c0.422-0.06,0.843-0.113,1.264-0.17
			c-7.029-1.748-13.908-2.542-21.219-2.976c-0.362-0.022-0.49-0.613-0.091-0.67c6.9-0.992,14.027-3.33,21.173-4.538
			c-5.971-1.12-11.53-2.197-17.897-2.171c-0.453,0.002-0.655-0.654-0.237-0.874C542.045,492.834,550.285,492.404,557.316,491.038z
			 M516.46,455.29c-2.587-0.667-5.077-1.341-7.5-2.483c-0.572-0.27-0.314-1.315,0.334-1.232c2.637,0.339,5.244,0.681,7.847,1.247
			C518.744,453.171,518.062,455.703,516.46,455.29z"/>
		<path id="XMLID_133_" style="fill:#EFE8CE;" d="M457.767,503.731c-8.197,2.509-16.337,5.977-20.329,13.898
			c-2.661,5.279-5.182,11.931-6.623,17.674c-3.832,15.269,3.032,31.21,5.031,46.285c2.162,16.307,3.174,32.923,6.084,49.114
			c2.742,15.257,12.313,28.106,20.97,40.594c3.428,4.946,6.421,10.076,9.242,15.293c-0.268-1.397-0.428-2.781-0.441-4.137
			c-0.501-4.394-0.015-8.827,3.876-11.773c3.864-2.926,8.923-2.114,13.091-0.308c7.055,3.058,11.738,7.436,16.144,13.59
			c3.997,5.583,9.363,12.951,9.359,20.09c0,0.645-0.898,0.729-1.089,0.147c-1.144-3.484-3.332-7.256-5.929-10.886
			c0.784,1.809,1.443,3.634,1.946,5.443c2.344,4.794,4.006,10.104,2.15,15.252c-1.651,4.579-6.092,9.061-11.281,8.548
			c-0.529-0.052-0.721-0.683-0.269-0.993c2.376-1.631,4.239-3.383,5.495-5.501c-3.252,2.657-7.705,4.292-12.175,5.488
			c1.348,1.103,2.829,2.07,4.488,2.852c10.312,4.856,18.525-1.365,22.617-10.948c5.557-13.014,3.113-35.958-2.809-48.56
			c-3.109-6.617-7.744-12.225-10.773-18.95c-2.276-5.053-4.47-10.077-7.314-14.823c-3.468-3.099-7.257-5.795-10.309-9.366
			c-4.78-5.591-9.716-10.342-15.55-14.85c-0.28-0.216,0.079-0.619,0.362-0.469c4.512,2.397,8.806,4.78,12.835,7.667
			c-0.879-1.532-1.687-3.095-2.408-4.682c-2.456-3.545-5.398-6.656-9.418-8.519c-0.416-0.193-0.111-0.911,0.312-0.741
			c2.41,0.97,4.781,2.237,7.001,3.754c-0.499-1.618-0.891-3.247-1.163-4.879c-1.521-2.948-3.267-5.715-6.323-7.622
			c-0.821-0.512-0.101-1.719,0.754-1.289c1.803,0.906,3.527,2.109,5.128,3.491c0.012-1.235,0.106-2.466,0.286-3.687
			c-0.852-1.375-1.474-3.017-2.402-4.267c-1.542-2.076-3.434-3.964-5.575-5.413c-0.645-0.436-0.253-1.62,0.559-1.325
			c2.66,0.965,5.051,2.347,7.084,4.326c0.504,0.491,1.061,1.053,1.606,1.659c0.091-0.248,0.203-0.493,0.303-0.74
			c-1.368-2.552-2.585-5.082-4.485-7.351c-1.937-2.313-4.226-4.34-6.488-6.327c-0.508-0.446,0.174-1.33,0.723-0.938
			c4.115,2.93,9.173,6.416,12.139,10.868c0.055-0.09,0.104-0.182,0.16-0.271c-0.034-0.05-0.08-0.08-0.111-0.134
			c-2.499-4.321-3.997-9.203-6.491-13.571c-3.053-5.348-6.919-10.189-11.41-14.395c-0.472-0.442,0.164-1.287,0.698-0.904
			c5.251,3.76,9.638,8.271,13.606,13.349c2.476,3.168,5.911,7.105,7.123,11.279c0.345-0.35,0.698-0.679,1.058-0.993
			c-0.039-0.063-0.093-0.101-0.127-0.171c-7.088-14.736-12.778-29.1-24.891-40.728c-0.498-0.478,0.188-1.403,0.749-0.971
			c6.921,5.312,12.626,11.673,17.675,18.762c4.138,5.81,9.78,13.048,10.549,20.469c1.319-0.643,2.695-1.118,4.112-1.443
			c-0.333-8.765-0.889-17.315-2.297-26.002c-0.896-5.526-3.319-11.096-2.713-16.711c0.014-0.133,0.082-0.241,0.164-0.332
			c-0.263-2.445-0.256-4.881,0.112-7.263c0.093-0.6,1.083-0.58,1.193,0c1.085,5.742,3.734,11.053,6.747,16.209
			c0.566,0.72,1.135,1.427,1.714,2.095c2.56,2.952,4.791,6.156,7.048,9.341c0.597,0.521,1.195,1.042,1.841,1.53
			c8.697,6.579,17.352,12.802,26.949,18.02c0.768,0.418,0.236,1.654-0.591,1.403c-7.607-2.301-16.212-4.812-23.794-8.6
			c4.17,2.97,9.985,5.302,13.72,7.271c6.36,3.353,12.724,6.749,19.488,9.224c6.575,2.406,13.338,3.88,20.114,5.277
			c-4.769-2.622-9.479-5.325-14.167-7.919c-0.607-0.336-0.189-1.364,0.477-1.13c18.701,6.57,37.466,12.449,57.062,15.663
			c0.455,0.075,0.906,0.16,1.36,0.237c0.857,0.08,1.713,0.175,2.571,0.246c-12.983-3.987-25.807-8.425-38.161-14.062
			c-0.421-0.192-0.117-0.886,0.312-0.741c11.272,3.814,22.855,6.206,34.531,8.191c3.169,0.312,6.339,0.581,9.509,0.842
			c-10.073-3.403-20.043-7.471-29.133-12.122c-0.466-0.239-0.132-0.937,0.345-0.818c12.54,3.13,25.247,5.536,37.981,7.738
			c0.456-0.074,0.947-0.054,1.472,0.116c0.401,0.13,0.809,0.225,1.211,0.348c2.123,0.363,4.247,0.721,6.371,1.077
			c-10.214-3.35-20.056-7.695-30.514-10.649c-0.907-0.256-0.521-1.582,0.385-1.398c8.872,1.793,17.191,4.917,26.314,6.014
			c5.344,0.642,10.743,1.127,16.128,1.579c0.432-0.06,0.864-0.12,1.295-0.179c-12.138-3.636-23.774-8.73-34.808-15.009
			c-0.325-0.185-0.21-0.81,0.204-0.755c7.304,0.966,14.76,2.553,22.16,4.244c0.77,0.017,1.552,0.025,2.339,0.026
			c-6.946-3.161-13.714-7.071-18.598-12.496c-0.579-0.643,0.284-1.467,0.935-0.935c4.55,3.718,10.281,5.696,16.206,7.212
			c-4.035-3.243-7.838-6.792-11.196-10.479c-2.561-1.669-4.624-3.728-5.561-6.393c-0.349-0.993,0.982-2.087,1.859-1.429
			c0.898,0.674,1.825,1.307,2.759,1.931c8.16,2.485,15.331,6.269,23.98,7.72c0.494,0.083,0.994,0.173,1.489,0.257
			c-5.116-2.45-9.934-5.37-13.562-9.335c-0.773-0.845,0.377-1.941,1.237-1.237c8.137,6.669,20.041,8.774,30.076,11.071
			c0.516,0.118,1.025,0.198,1.539,0.304c-9.635-3.676-18.772-8.679-26.609-14.582c-0.476-0.359-0.221-1.297,0.444-1.052
			c13.277,4.884,27.793,9.157,41.895,10.709c-4.067-1.764-8.172-3.437-12.424-4.799c-8.379-2.685-16.721-4.983-24.79-8.54
			c-0.838-0.369-0.226-1.675,0.608-1.442c10.3,2.872,20.923,2.646,31.454,3.917c0.548,0.066,1.081,0.164,1.621,0.247
			c-1.014-0.424-2.035-0.832-3.071-1.213c-8.118-2.988-16.562-4.951-24.855-7.366c-1.576-0.459-0.872-2.601,0.657-2.385
			c10.601,1.495,20.927,1.998,30.998,3.908c-1.416-0.712-2.819-1.443-4.251-2.135c-8.047-3.891-15.947-5.666-24.488-8.028
			c-0.601-0.166-0.443-1.014,0.142-1.047c9.618-0.551,19.825,1.392,29.346,2.745c0.46,0.065,0.908,0.147,1.362,0.222
			c-8.602-4.04-18.413-6.702-27.022-8.145c-0.808-0.135-0.532-1.289,0.181-1.34c5.426-0.39,10.718,0.694,16.13,0.923
			c2.919,0.123,5.829,0.122,8.736,0.288c-0.035-0.014-0.076-0.028-0.111-0.043c-7.786-3.259-15.357-5.575-23.845-6.129
			c-0.926-0.061-0.94-1.426,0-1.45c8.179-0.211,16.479,0.003,24.681,0.565c-7.204-3.045-14.748-5.164-22.634-6.216
			c-1.393-0.186-1.499-2.295,0-2.26c8.154,0.189,16.385,0.717,24.495,1.604c1.265,0.138,2.511,0.293,3.739,0.482
			c-8.517-3.948-17.895-5.645-27.011-8.176c-0.493-0.137-0.522-0.907,0-1.028c7.416-1.721,15.565-0.746,23.091-0.164
			c0.453,0.035,0.893,0.085,1.338,0.128c-6.578-2.794-13.315-4.801-20.756-6.111c-0.494-0.087-0.3-0.746,0.108-0.796
			c6.817-0.836,13.584,0.456,20.406,0.716c1.026,0.039,2.02,0.099,3.002,0.173c-6.214-2.673-12.709-4.259-19.262-6.671
			c-0.808-0.297-0.484-1.41,0.352-1.275c4.745,0.767,9.635,0.628,14.475,0.701c-1.157-0.384-2.324-0.758-3.499-1.146
			c-5.368-1.774-10.486-3.989-16.076-4.979c-0.679-0.12-0.407-1.017,0.147-1.089c4.645-0.602,9.843-0.992,14.964-0.647
			c0.757-0.095,1.516-0.185,2.279-0.268c-0.181-0.078-0.362-0.156-0.541-0.229c-4.762-1.96-9.254-4.499-14.342-5.52
			c-0.508-0.102-0.509-0.927,0-1.028c4.396-0.87,9.455-1.564,14.402-1.4c-6.338-2.195-12.672-4.428-19.265-5.202
			c-0.77-0.09-0.816-1.242,0-1.237c5.419,0.033,11.036-0.068,16.568,0.349c-4.907-1.242-9.789-2.563-14.673-3.885
			c-4.741-0.624-9.437-1.571-13.931-2.448c-2.434-0.475-10.627-1.107-14.906-3.495c-5.712,12.889-6.143,28.895-9.636,42.432
			c-3.677,14.251-8.516,28.571-11.471,42.941c-0.716,3.479-1.584,7.209-2.747,10.905c0.365,0.905,0.406,1.948-0.096,2.934
			c-0.73,1.436-1.618,2.827-2.61,4.176c-2.462,5.393-5.822,10.267-10.613,13.581c-10.654,7.369-25.63,7.058-37.889,8.709
			c-0.63,0.085-0.872-0.724-0.265-0.96c2.892-1.121,5.934-1.987,9.022-2.773c-8.244-0.168-16.971-1.701-23.175-4.05
			c-0.672-0.254-0.638-1.398,0.181-1.34c16.388,1.144,32.509-1.614,45.902-9.813c-5.601,2.339-13.054,3.669-20.101,3.778
			c-0.596,0.057-1.189,0.107-1.766,0.148c-0.182,0.013-0.349-0.007-0.52-0.017c-14.305,2.181-29.097,0.611-42.672-4.837
			c-4.301-1.29-8.482-2.931-12.491-4.935c1.801,1.688,3.601,3.36,5.25,5.25c2.692,3.088,5.901,5.346,9.424,7.39
			c0.007,0.004,0.01,0.01,0.016,0.014c4.016,1.635,8.152,3.04,11.957,5.132c0.453,0.249,0.141,0.983-0.351,0.831
			c-8.575-2.648-16.949-3.678-24.345-9.061c-0.227-0.165-0.442-0.345-0.666-0.513c-0.152,0.04-0.318,0.039-0.459-0.076
			c-1.612-1.309-3.141-2.746-4.609-4.27c-1.979-1.936-3.78-4.034-5.365-6.297c-6.547-8.618-11.759-18.825-16.899-27.605
			C487.104,500.316,472.269,499.291,457.767,503.731z M516.167,678.296c-1.895-2.248-3.028-5.065-5.218-7.065
			c-0.54-0.494,0.238-1.211,0.784-0.784c2.329,1.818,3.651,4.502,5.701,6.583C518.253,677.861,516.902,679.169,516.167,678.296z
			 M517.842,670.024c0.953,1.115-0.619,2.733-1.628,1.629c-3.626-3.968-6.53-7.948-11.446-10.473
			c-0.406-0.208-0.115-0.908,0.312-0.741C510.082,662.401,514.369,665.96,517.842,670.024z M514.376,660.574
			c0.949,1.41-1.075,2.684-2.21,1.706c-6.776-5.839-12.726-12.992-20.678-17.331c-0.665-0.363-0.08-1.289,0.581-0.994
			c4.751,2.113,8.799,5.268,12.986,8.299C508.402,654.678,512.04,657.103,514.376,660.574z M504.073,646.26
			c0.624,0.793-0.217,2.264-1.189,1.541c-3.321-2.471-6.014-5.571-9.057-8.347c-2.956-2.696-6.412-4.747-8.977-7.864
			c-0.379-0.46,0.214-1.083,0.664-0.664c3.052,2.847,6.922,4.417,10.267,6.851C498.98,640.107,501.635,643.162,504.073,646.26z
			 M479.817,618.422c6.692,3.226,14.649,8.267,17.978,15.201c0.548,1.142-0.894,2.457-1.842,1.421
			c-5.264-5.745-10.373-10.984-16.782-15.518C478.499,619.051,479.071,618.062,479.817,618.422z M465.797,637.586
			c-4.61,2.662-9.027,6.22-11.804,10.79c-0.835,1.374-3.285,0.461-2.677-1.128c2.166-5.654,8.667-8.887,13.977-10.857
			C466.005,636.126,466.419,637.226,465.797,637.586z M469.573,626.505c0.613-0.228,0.833,0.637,0.405,0.961
			c-3.278,2.489-6.708,4.759-9.947,7.305c-3.249,2.554-6.152,5.473-9.291,8.148c-1.456,1.241-3.32-0.634-2.091-2.091
			C453.925,634.576,461.945,629.339,469.573,626.505z M469.559,504.949c4.513,2.478,8.065,4.486,11.775,8.139
			c3.343,3.292,5.691,7.202,6.817,11.787c0.392,1.597-1.748,2.465-2.611,1.101c-2.503-3.952-4.249-7.963-7.292-11.618
			c-2.841-3.413-5.945-5.784-9.412-8.471C468.28,505.456,468.993,504.638,469.559,504.949z M468.205,511.3
			c10.161,6.1,18.16,15.526,20.734,27.32c0.01,0.048,0.001,0.089,0.005,0.135c0.619,2.057,1.226,4.124,2.212,6.065
			c0.293,0.577-0.476,1.261-0.938,0.724c-2.148-2.502-3.494-5.285-4.512-8.243c-5.342-9.092-9.38-18.202-18.125-24.932
			C466.97,511.899,467.501,510.878,468.205,511.3z M494.053,565.139c-0.07,0.575-0.696,0.917-1.165,0.483
			c-2.317-2.146-2.819-5.821-3.685-8.728c-0.011-0.037-0.026-0.073-0.038-0.109c-3.428-6.209-5.845-12.948-9.702-18.925
			c-4.224-6.547-9.995-11.897-14.994-17.824c-0.542-0.643,0.311-1.532,0.935-0.935c10.16,9.724,19.98,18.375,24.803,31.337
			C492.783,554.938,494.636,560.353,494.053,565.139z M645.563,446.082c3.426,2.728,8.226,2.473,12.19,3.887
			c1.686,0.602,1.007,3.238-0.748,2.714c-4.309-1.284-9.328-2.049-12.377-5.667C644.071,446.357,644.901,445.555,645.563,446.082z
			 M644.031,451.026c1.351,1.396,3.25,2.102,5.01,2.829c1.574,0.651,0.527,2.916-0.887,2.105c-1.935-1.109-3.938-2.209-5.295-4.03
			C642.341,451.237,643.458,450.434,644.031,451.026z"/>
		<path id="XMLID_85_" style="fill:#EFE8CE;" d="M504.893,441.772c0.112,0.068,0.227,0.107,0.337,0.196
			c3.491,2.823,13.177,1.632,17.974,1.762c3.647-0.827,7.274-1.902,10.886-2.946c-7.156-0.199-14.276-0.883-20.931-1.592
			c-1.08-0.115-1.057-1.528,0-1.663c10.06-1.287,20.026-3.474,29.967-5.696c-7.595-0.262-14.952-0.521-22.495,0.858
			c-0.755,0.138-1.349-0.953-0.559-1.325c6.838-3.219,14.09-4.665,21.387-6.46c1.512-0.372,3.112-0.873,4.758-1.382
			c-6.162-0.56-12.32-1.111-18.5-0.468c-0.594,0.062-0.868-0.914-0.312-1.152c5.014-2.157,10.171-3.224,15.446-4.532
			c2.288-0.567,4.513-1.253,6.744-1.877c-5.221-0.525-10.423-1.175-15.736-0.599c-1.068,0.116-1.061-1.389-0.232-1.717
			c4.325-1.714,8.813-2.482,13.282-3.688c1.8-0.486,3.53-0.999,5.265-1.434c-0.029-0.006-0.056-0.014-0.085-0.02
			c-3.154-0.6-6.394-0.702-9.585-0.967c-1.33-0.111-1.753-2.077-0.329-2.43c3.518-0.87,6.987-2.281,10.506-3.327
			c-2.349-0.354-4.601-0.882-6.871-1.961c-0.523-0.249-0.363-1.075,0.158-1.208c3.135-0.801,8.479-0.426,9.886-3.728
			c0.821-1.927,1.854-3.73,2.769-5.606c-0.238,0.209-0.466,0.424-0.727,0.618c-3.081,2.287-6.982,3.143-10.75,2.567
			c-0.497-0.076-0.479-0.896,0-0.987c3.499-0.666,6.263-2.722,8.445-5.488c1.103-1.398,1.913-3.028,2.823-4.575
			c-2.287,2.514-5.38,4.362-8.91,5.734c-0.6,0.233-1.155-0.703-0.643-1.105c2.493-1.959,4.908-4.132,6.534-6.889
			c1.364-2.313,2.099-4.937,3.515-7.207c0.869-1.394,3.602-0.981,3.378,0.915c-0.087,0.736-0.248,1.416-0.417,2.091
			c3.748,11.916,3.609,25.069,4.399,37.367c0.877,13.66,2.424,27.216,4.055,40.798c1.982,16.506,4.505,32.78,8.287,48.979
			c1.218,5.218,2.63,10.34,4.13,15.423c1.68,3.902,3.29,7.847,5.215,11.556c1.386,2.672,2.698,5.791,4.305,8.641
			c-1.761-7.215-3.188-14.57-5.049-21.721c-2.587-9.945-5.382-19.83-7.331-29.928c-3.819-19.786-4.594-40.106-6.628-60.122
			c-2.272-22.346-4.967-44.61-8.721-66.76c-1.05-6.193-1.834-12.321-2.449-18.5c-2.074-11.562-2.818-23.576-4.804-35.014
			c-2.682-15.453-4.961-31.175-6.944-46.713c-1.854-14.528-0.302-32.718-17.61-37.746c-13.245-3.848-25.332,1.721-34.144,10.913
			c-2.007,3.752-3.441,7.866-4.424,11.085c-2.815,9.218-1.552,19.21-1.345,28.702c0.23,10.578,0.671,21.268,1.719,31.797
			c0.786,7.891,1.946,15.65,2.138,23.494c14.205,3.392,28.602-0.736,42.803,0.981c1.076,0.13,1.116,1.626,0,1.706
			c-9.488,0.677-18.697,3.345-28.235,3.206c-4.431-0.064-9.844,0.618-14.184-0.982c-0.549,8.359-0.237,17.38-0.026,25.702
			c0.244,9.631,0.296,19.392,1.196,28.987c1.716,18.292,5.553,36.573,6.214,54.964C504.619,441.429,504.767,441.587,504.893,441.772
			z M551.881,345.769c1.268-1.763,1.654-4.089,2.632-6.01c0.662-1.299,2.464-0.157,1.915,1.119c-0.843,1.958-1.91,4.506-3.905,5.532
			C552.142,346.607,551.586,346.178,551.881,345.769z M550.325,356.71c1.335-1.971,2.484-4.164,3.562-6.286
			c1.02-2.008,1.74-4.249,3.194-5.991c0.514-0.616,1.657-0.118,1.602,0.664c-0.325,4.58-4.235,9.536-7.775,12.197
			C550.566,357.551,550.095,357.05,550.325,356.71z M549.072,368.497c3.611-4.547,6.873-10.769,8.886-16.212
			c0.455-1.229,2.331-1.087,2.346,0.318c0.036,3.38-2.143,6.297-3.991,8.955c-2.007,2.886-3.887,5.479-6.802,7.509
			C549.143,369.323,548.84,368.79,549.072,368.497z M548.587,376.656c4.729-4.181,7.802-10.646,10.746-16.077
			c0.781-1.441,2.604-0.342,2.417,1.019c-0.475,3.441-2.685,6.391-4.947,8.904c-2.322,2.58-4.452,5.402-7.725,6.79
			C548.691,377.457,548.212,376.988,548.587,376.656z M498.78,279.347c4.836,9.929,11.58,19.042,19.549,26.688
			c0.705,0.676-0.255,1.97-1.06,1.373c-9.607-7.126-15.58-16.422-19.346-27.7C497.754,279.204,498.548,278.871,498.78,279.347z
			 M513.893,320.024c-2.5-2.581-4.9-5.259-7.524-7.716c-0.489-0.458,0.176-1.344,0.724-0.938c2.943,2.184,5.688,4.613,8.52,6.935
			C516.806,319.284,515,321.167,513.893,320.024z M519.708,317.232c-8.313-5.149-14.277-13.801-18.664-22.333
			c-0.356-0.693,0.59-1.223,1.031-0.603c5.641,7.931,12.231,14.18,19.39,20.659C522.698,316.07,521.09,318.088,519.708,317.232z
			 M500.581,335.194c8.919,1.987,17.305-0.236,26.228-1.201c0.784-0.085,0.773,1.014,0.17,1.257
			c-7.714,3.104-19.78,7.633-26.979,0.943C499.54,335.765,500.027,335.071,500.581,335.194z M503.543,343.135
			c3.221,0.717,6.602-0.254,9.844-0.356c1.815-0.057,1.807,2.758,0,2.815c-3.426,0.108-7.147,0.13-10.321-1.328
			C502.398,343.958,502.897,342.991,503.543,343.135z"/>
		<path id="XMLID_30_" style="fill:#EFE8CE;" d="M611.061,901.803c9.451,1.87,17.798,0.538,26.939-2.052
			c15.134-4.288,30.3-8.057,45.228-13.067c16.674-5.596,25.482-21.144,33.455-35.983c9.031-16.81,11.411-33.903,13.812-52.591
			c2.218-17.263,4.612-34.564,5.651-51.946c0.907-15.172,1.253-30.486,0.921-45.7c-1.95-26.894-10.447-52.23-12.15-79.158
			c-0.895-14.153-1.861-28.234-2.042-42.421c-0.175-13.717-3.358-27.068-4.55-40.701c-2.484-28.419-0.937-57.486-1.465-86.014
			c-0.265-14.305-0.601-28.601,0.665-42.868c0.331-3.736,0.72-7.461,1.123-11.184c-0.502-21.41,3.284-41.967,5.282-63.391
			c2.108-22.605,8.696-45.609,7.086-68.351c-0.357-5.045-0.737-10.708-3.268-15.223c-4.355-7.77-14.736-9.977-22.306-6.265
			c-8.812,4.321-17.241,11.451-21.832,20.141c-5.511,10.43-6.531,21.104-9.992,32.131c-2.879,9.172-6.875,17.892-9.643,27.086
			c14.698,4.346,30.071,6.187,45.212,8.252c0.774,0.106,0.48,1.191-0.17,1.257c-14.742,1.493-31.823-0.156-45.928-5.155
			c-0.121,0.193-0.261,0.371-0.434,0.51c-2.167,9.242-3.517,18.608-6.2,27.77c-2.919,9.967-5.165,19.647-6.583,29.942
			c-1.615,11.728-3.206,23.465-4.351,35.249c-0.504,5.193-0.907,10.358-2.555,15.219c4.822,2.695,11.195,3.185,16.708,4.215
			c0.14-0.096,0.305-0.16,0.512-0.14c5.295,0.517,10.617,0.937,15.942,1.041c-5.465-1.01-11.105-2.339-16.107-4.055
			c-0.621-0.213-0.563-1.3,0.165-1.215c10.411,1.222,22.762,0.893,33.549-0.9c-0.301-0.084-0.602-0.168-0.904-0.249
			c-2.393-0.227-4.799-0.555-7.281-0.882c-6.063-0.799-12.152-0.714-17.907-2.964c-0.454-0.177-0.443-0.971,0.125-0.922
			c5.996,0.527,11.599-0.829,17.47-1.692c1.23-0.181,2.462-0.301,3.695-0.396c-5.122-0.611-10.163-1.74-14.469-3.636
			c-0.503-0.222-0.249-1.071,0.28-1.033c5.95,0.422,11.839-0.941,17.704-1.806c-4.354-0.724-8.688-1.603-13.154-1.921
			c-1.148-0.082-1.099-1.613,0-1.749c4.389-0.543,8.745,0.027,13.12-0.362c1.147-0.102,2.274-0.292,3.393-0.512
			c-0.117-0.025-0.24-0.052-0.356-0.076c-4.31-0.893-8.57-1.807-12.634-3.523c-0.75-0.317-0.377-1.635,0.42-1.55
			c3.981,0.425,8.034,0.996,12.04,0.71c1.398-0.1,2.746-0.359,4.077-0.67c0.144-0.311,0.428-0.563,0.792-0.558
			c0.365,0.004,0.76,0.037,1.165,0.075c0.024-0.006,0.048-0.012,0.072-0.018c-0.757-0.217-1.539-0.443-2.374-0.625
			c-4.366-0.954-8.887-1.165-13.275-2.09c-0.996-0.21-0.72-1.697,0.232-1.717c6.416-0.137,12.26-0.566,18.253-2.536
			c-1.221-0.42-2.438-0.867-3.714-1.195c-2.774-0.714-5.575-1.309-8.34-2.057c-0.685-0.185-0.559-1.308,0.17-1.257
			c2.687,0.189,5.329,0.285,8.012-0.032c2.812-0.333,5.279-1.52,8.063-1.868c0.196-0.025,0.372-0.01,0.552-0.005
			c0.045-0.337,0.086-0.674,0.132-1.011c-3.136,0.646-6.561-1.475-9.655-2.478c-0.595-0.193-0.661-1.114,0-1.275
			c2.596-0.632,6.116-0.922,8.196-2.887c0.425-1.488,0.817-2.984,1.188-4.486c-2.272,1.98-5.132,2.557-8.126,1.81
			c-0.442-0.11-0.492-0.873,0-0.946c4.712-0.702,6.45-4.333,8.434-7.882c-1.798,1.343-3.78,2.313-5.854,2.623
			c-0.756,0.113-1.12-0.75-0.509-1.208c2.332-1.751,4.446-3.636,6.327-5.873c1.775-2.112,3.424-4.336,5.476-6.199
			c0.763-0.692,2.406-0.024,1.925,1.12c-0.597,1.42-1.424,2.906-2.423,4.336c0.126,1.8,0.22,3.602,0.284,5.405
			c0.013,0.087,0.035,0.168,0.03,0.264c-0.002,0.048-0.011,0.095-0.014,0.143c0.105,3.148,0.135,6.301,0.094,9.456
			c0,0.045,0,0.09-0.001,0.136c-0.227,16.95-2.2,33.978-2.165,50.868c0.034,16.542,0.404,33.056-0.895,49.485
			c-0.082,13.513,0.734,27.003,1.739,40.473c0.66,8.84,2.95,18.839,2.062,27.702c-0.041,0.412-0.17,0.743-0.385,1.01
			c-0.12,0.695-0.556,1.355-1.384,1.688c-6.782,2.729-14.379,3.756-22.179,3.551c-4.35,0.736-8.505,1.396-12.922,1.512
			c1.21,0.473,2.382,0.874,3.462,1.149c9.099,0.786,18.375,1.316,27.216,0.567c0.627-0.053,0.686,0.874,0.142,1.047
			c-7.993,2.546-17.044,4.49-25.961,5.155c0.953,0.161,1.903,0.301,2.852,0.419c9.189-0.312,18.281-0.962,27.517-1.396
			c0.77-0.036,1.033,1.064,0.387,1.431c-5.114,2.9-11.099,4.73-17.283,5.91c0.783,0.164,1.565,0.337,2.343,0.546
			c0.147,0.04,0.26,0.123,0.357,0.222c4.691-0.122,9.356-0.137,13.969,0.088c0.633,0.031,0.685,0.83,0.142,1.047
			c-6.622,2.65-14.741,3.418-21.946,4.617c7.087,0.25,14.093,0.839,20.786,2.399c0.42,0.098,0.434,0.775,0,0.864
			c-8.854,1.808-18.315,1.805-27.325,3.027c-3.771,0.511-7.548,0.853-11.331,1.094c4.936,0.514,9.895,0.896,14.981,1.072
			c8.254,0.286,16.931,1.487,25.148,1.306c0.546-0.012,0.818,0.825,0.291,1.073c-2.405,1.13-4.388,1.214-6.997,1.347
			c-5.543,0.281-10.86,1.254-16.321,2.147c7.164,1.271,14.474,2.502,21.315,4.49c0.443,0.129,0.348,0.787-0.108,0.796
			c-7.954,0.153-15.727,0.641-23.595,0.742c1.997,0.427,4.031,0.971,6.179,1.733c6.447,2.289,14.194,1.789,20.112,5.204
			c0.375,0.216,0.122,0.833-0.296,0.702c-7.181-2.254-15.756,0.295-23.281-0.404c-1.152-0.107-2.368-0.151-3.606-0.178
			c1.458,0.478,2.91,0.971,4.337,1.528c6.534,2.551,13.57,2.525,20.172,4.831c1.151,0.402,0.685,2.022-0.499,1.81
			c-7.111-1.279-14.293-0.332-21.432-1.638c-0.284-0.052-0.586-0.087-0.878-0.131c3.15,1.09,6.055,3.09,9.301,4.044
			c5.1,1.499,10.257,3.134,15.397,4.453c0.304,0.078,0.346,0.612,0,0.658c-5.069,0.683-10.918-0.016-16.073-0.117
			c-1.92-0.038-3.909-0.213-5.874-0.555c0.36,0.373,0.722,0.741,1.081,1.116c0.599-0.248,1.302-0.318,2.091-0.094
			c3.719,1.054,7.022,3.14,10.769,4.199c3.651,1.032,7.509,1.092,11.116,2.198c0.86,0.264,0.883,1.516,0,1.768
			c-3.925,1.122-8.419,0.747-12.457,0.544c-1.068-0.054-2.164-0.112-3.263-0.206c0.134,0.039,0.27,0.052,0.402,0.122
			c4.659,2.477,10.077,3.207,14.509,6.029c0.672,0.428,0.224,1.398-0.526,1.247c-2.586-0.521-5.486-0.571-8.293-0.901
			c3.996,3.954,8.128,7.751,12.554,11.177c0.989,0.766-0.086,2.556-1.231,2.115c-12.498-4.816-21.451-16.786-30.637-26.052
			c-11.317-11.415-24.101-27.032-40.557-30.041c-19.512-3.567-39.606-4.248-59.293-6.556c-8.654-1.014-17.893-1.686-26.915-3.055
			c-0.073,5.42-1.013,11.286-5.221,15.025c-3.295,2.927-7.431,5.413-11.945,4.704c-0.931-0.146-0.574-1.424,0.204-1.508
			c3.311-0.357,5.699-2.252,7.57-4.807c-0.649,0.247-1.316,0.469-2.012,0.653c-18.451,10.744-43.354,3.581-58.572-10.533
			c-0.6-0.556,0.167-1.311,0.801-1.038c5.022,2.159,9.643,4.427,14.923,5.687c-6.464-2.186-13.116-5.521-15.983-11.055
			c-1.741-3.36-1.761-6.839-0.613-9.959c-5.406,6.035-5.694,13.995-3.478,21.712c0.583,1.222,1.086,2.471,1.417,3.753
			c0.042,0.163,0.036,0.306,0.038,0.452c2.638,6.534,6.792,12.589,10.791,16.756c23.589,24.579,56.93,32.122,89.649,34.404
			c4.256-7.359,11.532-12.815,17.029-19.181c0.347-0.402,0.899,0.113,0.692,0.534c-4.085,8.31-10.198,15.609-14.475,23.86
			c-0.07,0.135-0.151,0.246-0.231,0.359c0.796,2.095,1.193,4.44,1.972,6.487c2.11,5.543,4.853,10.743,7.967,15.78
			c6.69,10.822,13.583,21.434,20.71,31.966c5.957-1.271,12.775-0.167,18.465,1.084c0.734,0.161,0.784,1.413,0,1.535
			c-6.832,1.071-13.737,1.429-20.519,2.846c-0.406,0.085-0.771,0.079-1.099,0.013c-2.863,2.826-6.269,5.024-9.315,7.794
			c-4.647,4.223-8.945,8.742-12.896,13.623c-7.065,8.73-13.035,18.344-20.098,27.077c-6.891,10.603-12.413,21.791-15.322,34.505
			c-0.035,0.152-0.237,0.099-0.251-0.034c-0.999-9.119,1.261-19.063,5.063-28.161c-7.21,10.125-13.854,20.577-15.52,32.886
			c-0.106,0.78-1.258,0.518-1.299-0.176c-0.901-15.267,6.077-30.499,14.046-44.237c-3.599,4.214-7.094,8.508-10.302,13.018
			c-4.389,6.169-6.644,13.071-9.175,20.142c-2.033,5.681-4.562,11.071-5.5,17.072c-0.168,1.071-1.609,0.641-1.718-0.232
			c-0.816-6.583,1.037-13.384,2.043-19.876c1.003-6.473,2.141-12.863,4.909-18.805c0.043-0.973,0.083-1.94,0.118-2.903
			c-0.397,0.828-0.797,1.647-1.186,2.494c-2.662,5.798-5.182,11.667-7.948,17.414c-2.691,5.591-6.678,11.44-7.646,17.607
			c-0.125,0.794-1.236,0.503-1.299-0.176c-0.526-5.703,1.57-10.927,2.867-16.425c1.734-7.352,3.542-14.664,5.869-21.858
			c1.385-4.283,2.956-8.8,4.867-13.198c-2.892,4.435-5.528,8.866-7.931,12.582c-7.538,11.654-16.805,31.12-14.602,45.677
			c0.141,0.933-1.136,1.331-1.44,0.397c-4.195-12.922-1.107-31.272,4.353-44.305c-7.401,12.042-10.701,25.461-13.771,39.166
			c-0.17,0.757-1.416,0.789-1.563,0c-2.63-14.104,0.18-28.613,6.311-41.96c-8.488,13.041-17.207,26.906-17.022,42.958
			c0.009,0.779-1.003,0.795-1.257,0.17c-6.372-15.657,3.809-36.216,11.466-49.706c2.174-3.829,4.519-7.561,7.034-11.175
			c-2.048,2.326-4.057,4.687-5.997,7.104c-12.97,16.155-21.715,33.118-24.101,53.91c-0.165,1.434-2.144,1.471-2.26,0
			c-1.091-13.815,1.743-26.79,7.104-38.897c-1.123,1.356-2.22,2.738-3.254,4.181c-5.122,7.149-8.169,15.629-13.855,22.368
			c-0.619,0.734-1.981-0.049-1.64-0.954c3.637-9.645,6.073-20.171,11.529-29.007c0.595-0.964,1.229-1.906,1.876-2.84
			c-0.233,0.204-0.474,0.384-0.705,0.594c-7.777,7.069-15.054,15.422-21.081,24.027c-0.399,0.569-1.562,0.455-1.47-0.398
			c0.526-4.917,3.424-8.927,5.785-13.213c2.773-5.032,5.708-9.9,9.324-14.357c-7.304,4.11-13.798,9.15-20.192,14.723
			c-0.569,0.496-1.589-0.164-1.105-0.853c6.744-9.61,17.021-20.136,28.688-26.65c-1.111,0.213-2.215,0.472-3.31,0.803
			c-9.282,2.802-22.197,6.552-27.121,15.682c-0.356,0.66-1.545,0.393-1.47-0.398c0.842-8.88,12.498-14.429,19.369-18.309
			c2.065-1.166,4.131-2.237,6.208-3.206c-9.312,1.514-18.288,4.194-26.081,9.375c-1.045,0.695-2.004-0.798-1.266-1.641
			c5.946-6.79,13.688-10.386,22.077-13.03c-0.421-0.036-0.839-0.059-1.264-0.124c-6.561-0.999-10.747-5.001-14.803-9.336
			c-0.178-0.107-0.358-0.206-0.534-0.316c-7.185-4.486-14.554-9.843-20.655-16.133c1.872,6.254,2.661,12.775,3.246,19.36
			c1.074,12.102,2.672,24.137,3.411,36.269c1.483,24.365,4.098,50.29,14.589,72.648c4.814,10.259,9.779,22.647,17.658,30.939
			c8.097,8.521,20.809,13.603,31.888,16.732c20.274,5.724,45.136,7.569,65.762,0.797c-16.268-1.034-32.592,0.915-48.888-1.182
			c-13.243-1.705-29.847-7.435-39.579-17.008c-0.407-0.4,0.139-1.143,0.62-0.804c3.702,2.614,7.971,4.693,12.524,6.347
			c1.971,0.498,3.875,1.182,5.8,1.84c5.601,1.537,11.451,2.523,17.131,3.065c2.378,0.104,4.74,0.089,7.009-0.071
			c5.979-0.422,12.248-1.675,14.17-7.771c1.446-4.587,0.251-10.006-0.806-14.643c-0.002-0.007,0-0.013-0.001-0.02
			c-0.958-3.868-1.348-7.837-0.703-11.831c0.056-0.35,0.637-0.342,0.699,0c1.501,8.215,5.28,18.681,11.565,25.859
			c-4.56-8.611-5.715-19.858-4.528-28.424c0.08-0.579,1.055-0.561,1.152,0c1.625,9.401,4.218,17.248,9.414,23.927
			c-4.551-8.531-6.558-18.234-5.313-28.318c0.069-0.561,0.979-0.82,1.089-0.147c1.249,7.612,2.136,14.947,5.964,21.827
			c0.452,0.812,0.944,1.585,1.463,2.334c-3.064-10.759-3.608-22.745-2.424-33.794c0.116-1.081,1.524-1.055,1.663,0
			c1.861,14.146,4.648,28.401,10.414,41.365c4.786,9.014,12.148,15.823,23.181,19.199
			C596.427,897.845,603.651,900.338,611.061,901.803z M684.799,271.973c0.341-0.36,0.874,0.021,0.784,0.457
			c-2.546,12.305,4.48,22.035,11.086,31.681c0.658,0.962-0.759,1.906-1.541,1.189c-5.425-4.981-10.446-11.851-11.969-19.185
			C682.229,281.638,681.387,275.583,684.799,271.973z M687.394,315.081c-3.239-3.104-7.836-7.961-7.101-12.829
			c0.055-0.366,0.55-0.219,0.586,0.079c0.574,4.675,4.699,8.292,7.902,11.363C689.695,314.569,688.306,315.955,687.394,315.081z
			 M697.623,316.107c-4.293-2.996-8.039-6.39-11.118-10.641c-3.923-5.417-5.098-10.594-6.934-16.858
			c-0.215-0.733,0.835-0.968,1.11-0.306c2.493,6.003,4.481,11.067,8.695,16.134c2.953,3.55,6.322,6.743,9.383,10.198
			C699.432,315.391,698.538,316.746,697.623,316.107z M674.105,343.125c-2.708-0.918-5.715-1.728-7.837-3.733
			c-0.453-0.428,0.016-1.199,0.602-1.034c2.622,0.74,5.354,1.377,7.904,2.34C676.266,341.262,675.655,343.65,674.105,343.125z
			 M694.912,342.139c-5.351,0.33-10.618-1.049-15.72-2.549c-5.191-1.526-9.02-4.791-13.959-6.614
			c-0.484-0.178-0.298-0.906,0.216-0.781c4.618,1.124,8.824,3.175,13.445,4.288c5.424,1.307,10.914,1.937,16.382,2.975
			C696.874,339.762,696.357,342.05,694.912,342.139z M710.289,349.648c1.444-2.802,3.434-5.366,5.121-8.026
			c0.612-0.964,2.205-0.349,1.871,0.789c-0.92,3.136-3.692,5.474-5.446,8.142C711.202,351.517,709.76,350.676,710.289,349.648z
			 M708.399,360.516c3.388-2.146,4.74-7.02,6.637-10.335c0.776-1.357,2.701-0.165,2.062,1.205c-1.79,3.842-4.347,8.107-8.453,9.715
			C708.293,361.238,708.109,360.699,708.399,360.516z M704.269,375.565c-0.471,0.301-0.895-0.272-0.7-0.7
			c1.268-2.791,3.358-4.834,5.317-7.149c2.224-2.628,3.889-5.305,5.64-8.241c0.598-1.003,2.47-0.66,2.345,0.635
			C716.239,366.607,709.401,372.28,704.269,375.565z M546.308,642.393c5.172-0.917,10.186-2.555,14.731-5.226
			c0.512-0.301,1.115,0.442,0.646,0.837c-4.286,3.614-8.957,6.411-14.493,7.596C545.085,646.052,544.222,642.763,546.308,642.393z
			 M556.312,644.495c7.391-2.497,14.616-4.918,21.431-8.808c0.48-0.274,1.003,0.384,0.594,0.77
			c-5.911,5.589-13.061,9.773-21.13,11.287C555.082,648.143,554.243,645.194,556.312,644.495z M565.983,648.415
			c4.402-2.499,9.131-4.323,13.268-7.31c4.606-3.325,7.599-8.199,11.663-12.089c0.573-0.549,1.301,0.254,0.844,0.844
			c-3.778,4.886-6.015,10.812-10.912,14.769c-3.929,3.175-8.986,6.102-14.077,6.686C565.18,651.498,564.724,649.13,565.983,648.415z
			 M606.051,623.641c-5.092,10.883-13.297,22.97-24.951,27.496c-1.326,0.515-2.439-1.483-1.39-2.388
			c4.377-3.774,9.16-7.039,13.351-11.049c4.567-4.369,8.506-9.389,12.069-14.597C605.521,622.532,606.341,623.021,606.051,623.641z
			 M630.855,893.807c-2.258,1.279-4.06-1.978-2.002-3.425c6.272-4.41,10.446-10.644,15.063-16.64
			c5.336-6.929,10.21-13.82,12.479-22.414c0.133-0.506,0.952-0.408,0.921,0.125c-0.503,8.676-4.956,16.667-9.667,23.775
			C642.99,882.261,638.363,889.554,630.855,893.807z M645.192,891.092c-1.983,0.815-2.962-2.226-1.38-3.274
			c13.69-9.076,20.998-28.546,26.17-43.18c0.226-0.64,1.214-0.385,1.028,0.283C666.633,860.667,662.375,884.032,645.192,891.092z
			 M687.702,878.061c-1.185,1.483-3.321-0.419-2.512-1.938c8.434-15.837,7.234-34.874,8.622-52.27c0.036-0.446,0.63-0.43,0.682,0
			C696.651,841.379,699.594,863.172,687.702,878.061z M704.591,841.697c-0.009,8.723-0.539,17.449-3.883,25.609
			c-0.706,1.723-3.109,1.091-2.797-0.771c2.562-15.261,5.85-33.741,3.167-49.174c-0.15-0.863,1.019-1.197,1.316-0.363
			C705.258,825.051,704.6,833.272,704.591,841.697z M711.108,849.216c-0.608,2.355-3.974,1.322-3.578-0.986
			c2.53-14.759,0.409-27.368-0.782-41.969c-0.041-0.502,0.81-0.615,0.88-0.119C709.767,821.257,715.113,833.695,711.108,849.216z
			 M719.256,837.501c-0.239,2.247-3.264,2.247-3.497,0c-0.85-8.162-1.977-16.165-3.181-24.28c-0.89-5.994-0.49-12.379-4.262-17.47
			c-0.552-0.745,0.676-1.664,1.273-0.982c4.091,4.673,4.604,10.771,6.115,16.588C717.956,820.029,720.22,828.449,719.256,837.501z
			 M720.52,818.127c-3.488-11.041-4.961-21.924-10.991-32.081c-0.461-0.776,0.686-1.707,1.273-0.982
			c7.507,9.283,11.121,20.927,12.232,32.723C723.175,819.289,720.933,819.433,720.52,818.127z M722.29,799.052
			c-2.285-2.935-3.78-6.334-5.609-9.555c-2.132-3.756-4.771-7.066-7.482-10.414c-0.403-0.498,0.107-1.316,0.724-0.938
			c6.657,4.083,11.342,12.295,14.544,19.227C725.075,798.688,723.324,800.381,722.29,799.052z M722.303,787.593
			c-1.758-3.135-3.004-6.539-4.896-9.608c-2.014-3.268-4.586-6.208-7.435-8.773c-0.322-0.29,0.09-0.745,0.439-0.569
			c6.481,3.258,12.749,10.75,14.581,17.816C725.409,788.065,723.127,789.061,722.303,787.593z M724.84,776.913
			c-2.631-5.355-6.49-9.816-10.773-13.919c-0.547-0.524,0.251-1.269,0.814-0.814c4.759,3.838,9.107,8.11,12.278,13.377
			C728.062,777.055,725.596,778.453,724.84,776.913z M719.272,746.695c3.099,2.073,5.503,5.389,7.723,8.335
			c0.791,1.05-0.968,2.373-1.809,1.396c-2.399-2.79-4.535-6.007-6.585-9.059C718.33,746.963,718.869,746.425,719.272,746.695z
			 M719.963,711.907c3.098,2.9,5.23,6.668,8.429,9.466c1.203,1.052-0.699,2.952-1.749,1.749c-2.842-3.254-4.409-7.377-7.343-10.552
			C718.889,712.127,719.521,711.493,719.963,711.907z M722.494,759.746c1.444,1.514,3.215,3.005,4.279,4.815
			c0.558,0.95-0.656,1.667-1.407,1.085c-1.682-1.304-2.984-3.291-4.379-4.906c-1.424-1.648-2.859-3.286-4.296-4.921
			c-0.612-0.695,0.369-1.701,1.025-1.025C719.316,756.439,720.911,758.086,722.494,759.746z M727.931,747.662
			c-1.902-1.334-2.372-4.125-4.797-4.903c-0.646-0.207-0.364-1.076,0.272-0.987c1.229,0.171,2.253,0.859,3.177,1.652
			c0.919,0.789,2.138,1.806,2.69,2.896C729.679,747.121,728.795,748.268,727.931,747.662z M728.886,738.167
			c-0.593-0.625-1.217-1.209-1.882-1.758c-0.687-0.567,0.194-1.452,0.879-1.139c0.791,0.362,1.554,0.767,2.295,1.222
			C731.532,737.322,729.931,739.268,728.886,738.167z M728.728,717.499c-5.706-8.861-8.854-18.673-17.039-25.827
			c-0.929-0.812,0.399-2.048,1.327-1.327c8.329,6.471,14.394,16.37,18.285,26.07C731.923,717.967,729.542,718.763,728.728,717.499z
			 M729.343,704.649c-10.414-12.565-16.846-28.376-28.621-39.925c-0.457-0.448,0.168-1.302,0.698-0.904
			c13.702,10.276,22.647,23.895,30.602,38.762C732.901,704.224,730.622,706.192,729.343,704.649z M685.249,641.982
			c7.878,6.401,17.03,11.194,24.334,18.293c7.274,7.071,13.575,15.421,19.6,23.566c1.072,1.45-1.319,3.245-2.479,1.912
			c-6.925-7.954-13.105-16.648-20.345-24.319c-6.609-7.002-14.934-12.079-22.105-18.458
			C683.567,642.367,684.559,641.422,685.249,641.982z M685.889,838.108c0.028-0.88,1.331-0.877,1.365,0
			c0.671,17.513-0.566,32.713-11.36,47.255c-1.266,1.705-3.981,0.244-2.909-1.701c3.706-6.726,7.626-13.328,9.962-20.699
			C685.488,854.943,685.628,846.437,685.889,838.108z M678.248,842.756c0.139-0.935,1.421-0.569,1.508,0.204
			c1.114,9.872-2.801,19.552-6.417,28.552c-2.73,6.795-5.299,13.529-11.851,17.442c-1.933,1.154-4.043-1.566-2.404-3.115
			C670.146,875.389,676.084,857.354,678.248,842.756z M648.374,606.119c0.88-1.873,3.564-0.476,3.17,1.337
			c-0.71,3.266-3.606,6.169-6.002,8.317c-2.474,2.219-5.353,4.173-8.542,5.183c-0.693,0.219-1.132-0.835-0.493-1.169
			C641.889,616.972,645.857,611.48,648.374,606.119z M618.496,626.779c4.432-3.303,8.552-7.038,12.49-10.908
			c3.673-3.61,6.639-7.825,10.237-11.458c1.286-1.299,3.034,0.35,2.367,1.826c-4.506,9.969-15.256,16.722-24.822,21.007
			C618.449,627.388,618.217,626.987,618.496,626.779z M609.839,685.065c2.03-0.588,3.926-1.747,5.87-2.578
			c0.454-0.194,0.789,0.366,0.388,0.663c-1.836,1.354-3.267,3.01-5.386,3.981C609.183,687.83,608.305,685.51,609.839,685.065z
			 M612.278,688.175c2.296-1.221,4.388-2.707,6.871-3.562c0.377-0.13,0.584,0.431,0.263,0.624c-2.094,1.261-4.065,2.975-5.712,4.781
			C612.536,691.294,610.768,688.978,612.278,688.175z M615.072,691.319c1.929-0.971,3.875-1.763,5.686-2.965
			c1.794-1.191,3.498-2.517,5.242-3.78c0.394-0.285,0.879,0.358,0.517,0.67c-3.173,2.73-6.599,6.584-10.639,7.985
			C614.753,693.618,614.025,691.846,615.072,691.319z M617.868,695.16c5.364-3.699,11.501-6.269,17.176-9.465
			c0.518-0.291,1.106,0.426,0.646,0.837c-4.902,4.391-11.011,7.326-16.294,11.242C617.844,698.925,616.259,696.27,617.868,695.16z
			 M621.8,700.297c7.284-3.771,14.735-7.201,21.997-11.037c0.706-0.373,1.293,0.637,0.624,1.068
			c-6.915,4.458-13.7,9.833-21.438,12.775C621.34,703.729,620.282,701.083,621.8,700.297z M624.422,705.269
			c10.41-6.772,24.38-5.794,35.168-12.029c0.657-0.38,1.165,0.566,0.581,0.994c-9.536,6.999-23.234,10.704-34.402,14.231
			C623.798,709.088,622.826,706.308,624.422,705.269z M628.494,713.904c-2.117,0.748-2.967-2.555-0.918-3.331
			c6.69-2.534,13.803-3.257,20.705-5.025c9.021-2.31,16.512-6.129,24.904-9.974c0.789-0.361,1.44,0.697,0.689,1.179
			c-7.191,4.604-13.394,8.815-21.61,11.343C644.438,710.505,636.195,711.185,628.494,713.904z M641.832,858.553
			c-4.76,13.621-11.395,29.69-25.176,36.347c-1.745,0.843-3.068-1.464-1.507-2.578c12.044-8.59,19.337-21.13,25.825-34.13
			C641.212,857.716,642.006,858.055,641.832,858.553z M626.536,866.577c0.511-0.696,1.602-0.102,1.178,0.689
			c-3.174,5.927-6.98,11.252-11.362,16.341c-3.199,3.716-6.691,9.033-11.893,9.887c-1.527,0.251-2.661-1.815-1.117-2.651
			c4.59-2.484,7.827-6.332,11.405-10.047C619.016,876.363,622.895,871.534,626.536,866.577z M612.841,872.352
			c0.376-0.34,1.062,0.118,0.737,0.568c-2.91,4.032-5.834,8.056-8.802,12.044c-2.299,3.09-4.749,5.909-8.432,7.279
			c-1.85,0.688-3.049-2.282-1.331-3.157c3.773-1.921,6.052-4.763,8.758-7.895C606.542,877.985,609.705,875.187,612.841,872.352z
			 M594.795,805.655c0.68,10.066,3.867,19.509,5.163,29.42c0.17,1.3-1.985,1.866-2.504,0.678c-4.04-9.252-3.906-20.21-3.513-30.098
			C593.964,805.102,594.758,805.11,594.795,805.655z M593.265,761.689c0.412-0.642,1.276-0.085,0.994,0.581
			c-8.286,19.556-15.065,39.635-14.326,61.279c0.017,0.49-0.711,0.569-0.838,0.113C572.945,801.522,581.374,780.236,593.265,761.689
			z M589.395,833.861c-0.058,0.832-1.416,1.137-1.55,0.21c-1.431-9.918-4.356-18.322-3.134-28.478
			c1.004-8.353,2.155-16.968,6.826-24.136c0.277-0.426,1.049-0.158,0.858,0.362c-3.02,8.201-3.539,16.746-4.11,25.392
			C587.691,816.181,590.016,824.886,589.395,833.861z M565.986,859.165c-0.076,0.043-0.152,0.086-0.228,0.129
			c-0.659,0.373-1.508-0.098-1.508-0.866s0.849-1.238,1.508-0.865l0.228,0.129C566.54,858.005,566.54,858.852,565.986,859.165z
			 M566.873,865.052c0.238-0.335,0.483-0.464,0.841-0.624c0.28-0.125,0.54-0.131,0.774-0.08c0.06-0.017,0.121-0.033,0.181-0.049
			c0.768-0.207,1.452,0.826,0.809,1.39c-0.068,0.06-0.136,0.12-0.204,0.18c-0.085,0.185-0.207,0.363-0.42,0.511
			c-0.211,0.147-0.412,0.32-0.669,0.381v-0.04C567.289,866.928,566.208,865.988,566.873,865.052z M568.831,871.702
			c-0.84-0.625-0.846-1.659,0-2.283c0.656-0.485,1.451-0.291,2.215-0.357c0.722-0.062,1.441-0.168,2.157-0.275
			c0.944-0.142,1.638,1.101,0.69,1.637C572.639,871.133,570.231,872.745,568.831,871.702z M572.18,874.745
			c2.503-0.937,4.873-2.319,7.427-3.105c0.825-0.254,1.377,1.025,0.591,1.403c-2.514,1.211-4.577,3.539-7.315,4.252
			C571.205,877.731,570.612,875.332,572.18,874.745z M576.633,880.158c4.794-1.645,10.842-4.356,14.19-8.29
			c0.548-0.644,1.539,0.188,1.139,0.879c-1.679,2.901-4.176,4.667-6.855,6.562c-2.313,1.637-5.072,3.992-8.026,4.159
			C575.079,883.58,574.93,880.742,576.633,880.158z M582.9,887.143c1.46-3.507,5.694-4,8.704-5.81
			c4.009-2.411,6.987-6.39,10.169-9.738c0.531-0.559,1.499,0.178,1.072,0.827c-2.39,3.633-4.844,7.32-7.946,10.4
			c-2.488,2.47-6.68,5.522-10.135,6.183C583.772,889.195,582.414,888.31,582.9,887.143z"/>
		<path id="XMLID_318_" style="fill:#EFE8CE;" d="M705.123,457.961c0.046,0.013,0.095,0.022,0.14,0.035
			c0.001-0.014,0.002-0.032,0.003-0.047C705.219,457.953,705.171,457.957,705.123,457.961z"/>
		<path id="XMLID_321_" style="fill:#EFE8CE;" d="M518.201,579.227c-6.728-2.613-15.127-5.844-22.088-3.036
			c-11.638,14.149,13.668,22.324,24.116,24.502c11.534,2.405,35.939,9.504,37.161-8.167c-5.978-1.066-11.807-2.511-17.245-4.657
			C532.834,584.983,525.528,582.072,518.201,579.227z M547.966,599.703c-7.912,5.002-19.88-1.612-27.525-4.004
			c-8.019-2.509-18.499-4.452-21.609-13.451c-0.17-0.491,0.456-0.717,0.784-0.456c7.63,6.058,16.249,7.143,25.646,8.375
			c3.929,0.515,8.04,0.633,11.877,1.703c3.187,0.889,6.063,2.786,9.46,2.786C549.353,594.656,550.198,598.292,547.966,599.703z"/>
		<path id="XMLID_322_" style="fill:#564C44;" d="M709.923,778.146c-0.616-0.378-1.127,0.44-0.724,0.938
			c2.71,3.348,5.349,6.658,7.482,10.414c1.829,3.221,3.324,6.62,5.609,9.555c1.034,1.328,2.785-0.364,2.177-1.68
			C721.265,790.44,716.58,782.229,709.923,778.146z"/>
		<path id="XMLID_323_" style="fill:#564C44;" d="M709.529,786.046c6.031,10.157,7.503,21.04,10.991,32.081
			c0.413,1.306,2.655,1.162,2.513-0.34c-1.111-11.796-4.725-23.439-12.232-32.723C710.215,784.339,709.068,785.271,709.529,786.046z
			"/>
		<path id="XMLID_324_" style="fill:#564C44;" d="M709.588,794.769c-0.597-0.682-1.824,0.238-1.273,0.982
			c3.772,5.09,3.372,11.476,4.262,17.47c1.205,8.115,2.332,16.117,3.181,24.28c0.234,2.247,3.258,2.247,3.497,0
			c0.963-9.052-1.301-17.472-3.553-26.143C714.192,805.541,713.68,799.443,709.588,794.769z"/>
		<path id="XMLID_325_" style="fill:#564C44;" d="M706.748,806.261c1.19,14.601,3.312,27.209,0.782,41.969
			c-0.396,2.308,2.97,3.342,3.578,0.986c4.005-15.521-1.341-27.959-3.48-43.074C707.557,805.646,706.707,805.759,706.748,806.261z"
			/>
		<path id="XMLID_326_" style="fill:#564C44;" d="M701.078,817.362c2.684,15.433-0.605,33.913-3.167,49.174
			c-0.313,1.862,2.091,2.494,2.797,0.771c3.344-8.16,3.874-16.887,3.883-25.609c0.009-8.425,0.667-16.646-2.197-24.698
			C702.097,816.164,700.928,816.498,701.078,817.362z"/>
		<path id="XMLID_327_" style="fill:#564C44;" d="M693.812,823.853c-1.388,17.396-0.188,36.433-8.622,52.27
			c-0.809,1.519,1.327,3.421,2.512,1.938c11.892-14.889,8.949-36.682,6.793-54.208C694.442,823.422,693.848,823.406,693.812,823.853
			z"/>
		<path id="XMLID_328_" style="fill:#564C44;" d="M675.894,885.363c10.794-14.542,12.031-29.742,11.36-47.255
			c-0.034-0.877-1.337-0.88-1.365,0c-0.261,8.329-0.401,16.836-2.943,24.856c-2.336,7.371-6.255,13.973-9.962,20.699
			C671.913,885.607,674.628,887.068,675.894,885.363z"/>
		<path id="XMLID_329_" style="fill:#564C44;" d="M661.489,888.955c6.552-3.913,9.121-10.647,11.851-17.442
			c3.616-8.999,7.53-18.68,6.417-28.552c-0.087-0.773-1.369-1.139-1.508-0.204c-2.165,14.598-8.103,32.633-19.163,43.083
			C657.445,887.389,659.556,890.109,661.489,888.955z"/>
		<path id="XMLID_330_" style="fill:#564C44;" d="M669.982,844.638c-5.173,14.634-12.481,34.104-26.17,43.18
			c-1.581,1.048-0.603,4.089,1.38,3.274c17.183-7.061,21.441-30.425,25.818-46.171C671.196,844.253,670.209,843.998,669.982,844.638
			z"/>
		<path id="XMLID_331_" style="fill:#564C44;" d="M657.317,851.453c0.031-0.533-0.788-0.631-0.921-0.125
			c-2.269,8.595-7.143,15.486-12.479,22.414c-4.617,5.996-8.792,12.23-15.063,16.64c-2.058,1.447-0.256,4.704,2.002,3.425
			c7.507-4.253,12.135-11.546,16.795-18.579C652.361,868.12,656.815,860.129,657.317,851.453z"/>
		<path id="XMLID_332_" style="fill:#564C44;" d="M615.149,892.322c-1.561,1.114-0.238,3.421,1.507,2.578
			c13.781-6.656,20.416-22.726,25.176-36.347c0.174-0.498-0.62-0.838-0.857-0.362C634.487,871.192,627.193,883.732,615.149,892.322z
			"/>
		<path id="XMLID_333_" style="fill:#564C44;" d="M603.342,890.843c-1.543,0.835-0.409,2.901,1.117,2.651
			c5.201-0.854,8.693-6.172,11.893-9.887c4.381-5.089,8.188-10.414,11.362-16.341c0.423-0.79-0.667-1.385-1.178-0.689
			c-3.641,4.957-7.519,9.787-11.788,14.219C611.169,884.511,607.932,888.358,603.342,890.843z"/>
		<path id="XMLID_334_" style="fill:#564C44;" d="M595.013,889.087c-1.718,0.875-0.519,3.845,1.331,3.157
			c3.683-1.37,6.134-4.19,8.432-7.279c2.968-3.988,5.892-8.013,8.802-12.044c0.325-0.45-0.36-0.909-0.737-0.568
			c-3.136,2.835-6.299,5.633-9.07,8.839C601.065,884.324,598.787,887.165,595.013,889.087z"/>
		<path id="XMLID_335_" style="fill:#564C44;" d="M602.844,872.422c0.427-0.649-0.541-1.386-1.072-0.827
			c-3.181,3.349-6.159,7.327-10.169,9.738c-3.009,1.81-7.243,2.302-8.704,5.81c-0.486,1.167,0.872,2.052,1.863,1.863
			c3.455-0.662,7.648-3.713,10.135-6.183C598,879.741,600.454,876.055,602.844,872.422z"/>
		<path id="XMLID_336_" style="fill:#564C44;" d="M591.962,872.746c0.4-0.691-0.591-1.522-1.139-0.879
			c-3.349,3.934-9.396,6.645-14.19,8.29c-1.702,0.584-1.553,3.422,0.448,3.309c2.954-0.167,5.713-2.522,8.026-4.159
			C587.786,877.414,590.283,875.647,591.962,872.746z"/>
		<path id="XMLID_337_" style="fill:#564C44;" d="M579.606,871.64c-2.553,0.786-4.924,2.168-7.427,3.105
			c-1.567,0.587-0.974,2.986,0.703,2.55c2.738-0.712,4.801-3.041,7.315-4.252C580.984,872.665,580.431,871.386,579.606,871.64z"/>
		<path id="XMLID_338_" style="fill:#564C44;" d="M573.203,868.787c-0.716,0.107-1.435,0.213-2.157,0.275
			c-0.764,0.066-1.559-0.128-2.215,0.357c-0.846,0.624-0.84,1.658,0,2.283c1.4,1.042,3.808-0.57,5.062-1.278
			C574.841,869.888,574.147,868.645,573.203,868.787z"/>
		<path id="XMLID_339_" style="fill:#564C44;" d="M568.855,866.38c0.213-0.148,0.336-0.327,0.42-0.511
			c0.068-0.06,0.136-0.12,0.204-0.18c0.642-0.564-0.042-1.597-0.809-1.39c-0.06,0.016-0.121,0.033-0.181,0.049
			c-0.235-0.051-0.495-0.045-0.774,0.08c-0.358,0.16-0.603,0.289-0.841,0.624c-0.665,0.936,0.415,1.876,1.314,1.669v0.04
			C568.443,866.7,568.644,866.527,568.855,866.38z"/>
		<path id="XMLID_340_" style="fill:#564C44;" d="M565.758,857.563c-0.659-0.373-1.508,0.098-1.508,0.865s0.849,1.238,1.508,0.866
			c0.076-0.043,0.152-0.086,0.228-0.129c0.554-0.313,0.554-1.16,0-1.473L565.758,857.563z"/>
		<path id="XMLID_341_" style="fill:#564C44;" d="M710.411,768.643c-0.349-0.176-0.762,0.279-0.439,0.569
			c2.849,2.565,5.421,5.505,7.435,8.773c1.892,3.069,3.137,6.473,4.896,9.608c0.823,1.468,3.106,0.472,2.69-1.134
			C723.16,779.393,716.893,771.901,710.411,768.643z"/>
		<path id="XMLID_342_" style="fill:#564C44;" d="M714.882,762.179c-0.564-0.455-1.362,0.29-0.814,0.814
			c4.283,4.103,8.142,8.564,10.773,13.919c0.756,1.54,3.222,0.142,2.32-1.356C723.989,770.29,719.641,766.018,714.882,762.179z"/>
		<path id="XMLID_343_" style="fill:#564C44;" d="M716.692,755.82c1.438,1.635,2.873,3.273,4.296,4.921
			c1.395,1.615,2.697,3.602,4.379,4.906c0.75,0.582,1.965-0.136,1.407-1.085c-1.064-1.81-2.835-3.301-4.279-4.815
			c-1.583-1.659-3.178-3.307-4.777-4.951C717.06,754.119,716.08,755.125,716.692,755.82z"/>
		<path id="XMLID_344_" style="fill:#564C44;" d="M718.601,747.366c2.05,3.052,4.186,6.269,6.585,9.059
			c0.841,0.978,2.6-0.346,1.809-1.396c-2.22-2.946-4.624-6.261-7.723-8.335C718.869,746.425,718.33,746.963,718.601,747.366z"/>
		<path id="XMLID_345_" style="fill:#564C44;" d="M726.584,743.424c-0.924-0.793-1.948-1.481-3.177-1.652
			c-0.636-0.089-0.918,0.78-0.272,0.987c2.425,0.778,2.895,3.569,4.797,4.903c0.864,0.606,1.748-0.541,1.342-1.342
			C728.722,745.23,727.502,744.212,726.584,743.424z"/>
		<path id="XMLID_346_" style="fill:#564C44;" d="M730.178,736.492c-0.742-0.455-1.504-0.86-2.295-1.222
			c-0.685-0.313-1.565,0.572-0.879,1.139c0.665,0.549,1.289,1.133,1.882,1.758C729.931,739.268,731.532,737.322,730.178,736.492z"/>
		<path id="XMLID_347_" style="fill:#564C44;" d="M579.933,823.549c-0.739-21.644,6.04-41.723,14.326-61.279
			c0.282-0.666-0.583-1.224-0.994-0.581c-11.891,18.547-20.32,39.833-14.169,61.974C579.222,824.118,579.95,824.039,579.933,823.549
			z"/>
		<path id="XMLID_348_" style="fill:#564C44;" d="M592.395,781.819c0.191-0.519-0.58-0.787-0.858-0.362
			c-4.671,7.168-5.822,15.784-6.826,24.136c-1.221,10.156,1.703,18.559,3.134,28.478c0.134,0.928,1.492,0.622,1.55-0.21
			c0.621-8.975-1.704-17.68-1.111-26.65C588.856,798.565,589.375,790.02,592.395,781.819z"/>
		<path id="XMLID_349_" style="fill:#564C44;" d="M593.942,805.655c-0.393,9.888-0.527,20.846,3.513,30.098
			c0.519,1.188,2.674,0.622,2.504-0.678c-1.296-9.911-4.483-19.354-5.163-29.42C594.758,805.11,593.964,805.102,593.942,805.655z"/>
		<path id="XMLID_350_" style="fill:#564C44;" d="M478.248,514.358c3.043,3.655,4.789,7.666,7.292,11.618
			c0.864,1.364,3.004,0.496,2.611-1.101c-1.126-4.585-3.473-8.495-6.817-11.787c-3.71-3.653-7.262-5.661-11.775-8.139
			c-0.566-0.311-1.28,0.507-0.724,0.938C472.302,508.574,475.406,510.945,478.248,514.358z"/>
		<path id="XMLID_351_" style="fill:#564C44;" d="M485.706,537.3c1.018,2.959,2.364,5.741,4.512,8.243
			c0.462,0.538,1.231-0.147,0.938-0.724c-0.986-1.94-1.593-4.008-2.212-6.065c-0.005-0.046,0.005-0.087-0.005-0.135
			c-2.573-11.794-10.573-21.22-20.734-27.32c-0.704-0.423-1.235,0.598-0.624,1.068C476.326,519.098,480.364,528.208,485.706,537.3z"
			/>
		<path id="XMLID_352_" style="fill:#564C44;" d="M465.403,519.101c-0.624-0.597-1.477,0.292-0.935,0.935
			c4.999,5.926,10.77,11.277,14.994,17.824c3.857,5.978,6.274,12.716,9.702,18.925c0.011,0.036,0.027,0.073,0.038,0.109
			c0.866,2.907,1.368,6.582,3.685,8.728c0.469,0.434,1.095,0.092,1.165-0.483c0.583-4.786-1.27-10.201-3.846-14.701
			C485.384,537.476,475.563,528.825,465.403,519.101z"/>
		<path id="XMLID_353_" style="fill:#564C44;" d="M495.953,635.045c0.949,1.035,2.39-0.279,1.842-1.421
			c-3.329-6.934-11.286-11.975-17.978-15.201c-0.746-0.36-1.318,0.629-0.646,1.105C485.579,624.061,490.689,629.3,495.953,635.045z"
			/>
		<path id="XMLID_354_" style="fill:#564C44;" d="M485.513,630.926c-0.449-0.419-1.042,0.203-0.664,0.664
			c2.565,3.117,6.022,5.168,8.977,7.864c3.043,2.776,5.736,5.875,9.057,8.347c0.972,0.723,1.813-0.748,1.189-1.541
			c-2.438-3.098-5.092-6.153-8.293-8.483C492.435,635.343,488.565,633.773,485.513,630.926z"/>
		<path id="XMLID_355_" style="fill:#564C44;" d="M491.487,644.949c7.952,4.339,13.901,11.492,20.678,17.331
			c1.136,0.979,3.159-0.296,2.21-1.706c-2.336-3.471-5.973-5.897-9.321-8.32c-4.187-3.031-8.235-6.186-12.986-8.299
			C491.407,643.66,490.822,644.586,491.487,644.949z"/>
		<path id="XMLID_356_" style="fill:#564C44;" d="M504.767,661.18c4.916,2.525,7.82,6.505,11.446,10.473
			c1.009,1.105,2.581-0.513,1.628-1.629c-3.473-4.064-7.76-7.624-12.763-9.585C504.652,660.271,504.361,660.971,504.767,661.18z"/>
		<path id="XMLID_357_" style="fill:#564C44;" d="M511.733,670.446c-0.546-0.426-1.325,0.29-0.784,0.784
			c2.19,2.001,3.324,4.817,5.218,7.065c0.735,0.873,2.086-0.435,1.267-1.267C515.383,674.949,514.062,672.264,511.733,670.446z"/>
		<path id="XMLID_358_" style="fill:#564C44;" d="M458.08,715.963c-3.669-1.523-7.031-3.431-10.62-5.173
			c-4.5-2.184-5.249-6.841-8.186-10.422c-0.486-0.592-1.297,0.065-1.176,0.685c1.046,5.359,3.117,10.786,6.395,15.164
			c3.211,4.289,7.426,9.944,13.587,7.766C462.177,722.535,461.842,717.525,458.08,715.963z"/>
		<path id="XMLID_359_" style="fill:#564C44;" d="M494.305,702.762c-0.339-0.463-0.785-0.974-0.962-1.256
			c-0.881-1.398-1.608-2.855-2.442-4.276c-1.223-2.084-2.833-3.514-4.448-5.273c-2.191-2.387-2.929-5.405-4.506-8.162
			c-0.278-0.486-0.947-0.141-0.857,0.362c0.418,2.353,0.061,4.613,0.369,6.952c0.288,2.184,1.264,4.19,1.684,6.349
			c0.551,2.835,0.943,5.427,2.119,8.095c2.507,5.688,9.473,10.892,14.06,3.963C501.483,706.25,497.75,701.732,494.305,702.762z"/>
		<path id="XMLID_360_" style="fill:#564C44;" d="M525.263,590.167c-9.397-1.232-18.017-2.318-25.646-8.375
			c-0.328-0.261-0.954-0.035-0.784,0.456c3.11,8.999,13.59,10.942,21.609,13.451c7.645,2.392,19.613,9.005,27.525,4.004
			c2.232-1.411,1.387-5.047-1.367-5.047c-3.397,0-6.272-1.896-9.46-2.786C533.303,590.8,529.191,590.683,525.263,590.167z"/>
		<path id="XMLID_361_" style="fill:#564C44;" d="M695.275,339.458c-5.467-1.038-10.958-1.668-16.382-2.975
			c-4.62-1.114-8.827-3.164-13.445-4.288c-0.514-0.125-0.699,0.603-0.216,0.781c4.939,1.823,8.768,5.088,13.959,6.614
			c5.103,1.5,10.369,2.879,15.72,2.549C696.357,342.05,696.874,339.762,695.275,339.458z"/>
		<path id="XMLID_362_" style="fill:#564C44;" d="M674.774,340.698c-2.55-0.963-5.282-1.6-7.904-2.34
			c-0.585-0.165-1.054,0.606-0.602,1.034c2.122,2.005,5.13,2.815,7.837,3.733C675.655,343.65,676.266,341.262,674.774,340.698z"/>
		<path id="XMLID_363_" style="fill:#564C44;" d="M657.005,452.684c1.756,0.523,2.435-2.113,0.748-2.714
			c-3.964-1.414-8.764-1.159-12.19-3.887c-0.662-0.527-1.492,0.275-0.935,0.935C647.677,450.634,652.696,451.4,657.005,452.684z"/>
		<path id="XMLID_364_" style="fill:#564C44;" d="M648.154,455.96c1.415,0.811,2.461-1.454,0.887-2.105
			c-1.76-0.728-3.66-1.434-5.01-2.829c-0.573-0.592-1.689,0.211-1.172,0.905C644.216,453.751,646.219,454.851,648.154,455.96z"/>
		<path id="XMLID_366_" style="fill:#564C44;" d="M695.128,305.299c0.782,0.718,2.199-0.227,1.541-1.189
			c-6.606-9.646-13.632-19.376-11.086-31.681c0.09-0.435-0.443-0.817-0.784-0.457c-3.412,3.61-2.569,9.665-1.64,14.142
			C684.682,293.449,689.703,300.319,695.128,305.299z"/>
		<path id="XMLID_367_" style="fill:#564C44;" d="M689.377,304.436c-4.215-5.067-6.202-10.131-8.695-16.134
			c-0.275-0.662-1.326-0.427-1.11,0.306c1.836,6.263,3.012,11.441,6.934,16.858c3.079,4.252,6.825,7.645,11.118,10.641
			c0.915,0.639,1.809-0.716,1.137-1.474C695.699,311.179,692.33,307.986,689.377,304.436z"/>
		<path id="XMLID_444_" style="fill:#564C44;" d="M680.88,302.331c-0.037-0.298-0.531-0.445-0.586-0.079
			c-0.735,4.868,3.862,9.725,7.101,12.829c0.912,0.874,2.301-0.512,1.387-1.387C685.578,310.623,681.454,307.006,680.88,302.331z"/>
		<path id="XMLID_445_" style="fill:#564C44;" d="M549.078,377.292c3.273-1.387,5.403-4.21,7.725-6.79
			c2.262-2.513,4.472-5.463,4.947-8.904c0.188-1.361-1.635-2.46-2.417-1.019c-2.944,5.43-6.017,11.896-10.746,16.077
			C548.212,376.988,548.691,377.457,549.078,377.292z"/>
		<path id="XMLID_447_" style="fill:#564C44;" d="M549.512,369.066c2.914-2.03,4.795-4.623,6.802-7.509
			c1.848-2.658,4.027-5.575,3.991-8.955c-0.015-1.404-1.891-1.547-2.346-0.318c-2.013,5.443-5.275,11.665-8.886,16.212
			C548.84,368.79,549.143,369.323,549.512,369.066z"/>
		<path id="XMLID_448_" style="fill:#564C44;" d="M550.909,357.293c3.54-2.661,7.45-7.616,7.775-12.197
			c0.055-0.781-1.087-1.28-1.602-0.664c-1.455,1.742-2.174,3.983-3.194,5.991c-1.079,2.122-2.227,4.315-3.562,6.286
			C550.095,357.05,550.566,357.551,550.909,357.293z"/>
		<path id="XMLID_449_" style="fill:#564C44;" d="M552.523,346.411c1.996-1.026,3.063-3.574,3.905-5.532
			c0.549-1.276-1.253-2.419-1.915-1.119c-0.978,1.921-1.364,4.246-2.632,6.01C551.586,346.178,552.142,346.607,552.523,346.411z"/>
		<path id="XMLID_450_" style="fill:#564C44;" d="M714.526,359.474c-1.751,2.936-3.416,5.613-5.64,8.241
			c-1.959,2.315-4.05,4.358-5.317,7.149c-0.194,0.428,0.229,1.002,0.7,0.7c5.132-3.285,11.97-8.958,12.601-15.455
			C716.996,358.814,715.124,358.471,714.526,359.474z"/>
		<path id="XMLID_451_" style="fill:#564C44;" d="M708.645,361.1c4.106-1.608,6.663-5.872,8.453-9.715
			c0.638-1.37-1.286-2.563-2.062-1.205c-1.897,3.316-3.249,8.189-6.637,10.335C708.109,360.699,708.293,361.238,708.645,361.1z"/>
		<path id="XMLID_452_" style="fill:#564C44;" d="M711.836,350.553c1.754-2.667,4.526-5.006,5.446-8.142
			c0.334-1.138-1.26-1.753-1.871-0.789c-1.688,2.66-3.678,5.225-5.121,8.026C709.76,350.676,711.202,351.517,711.836,350.553z"/>
		<path id="XMLID_453_" style="fill:#564C44;" d="M526.979,335.249c0.602-0.242,0.614-1.341-0.17-1.257
			c-8.923,0.966-17.31,3.188-26.228,1.201c-0.553-0.123-1.04,0.571-0.581,0.998C507.198,342.882,519.265,338.353,526.979,335.249z"
			/>
		<path id="XMLID_454_" style="fill:#564C44;" d="M513.388,345.594c1.807-0.057,1.815-2.872,0-2.815
			c-3.243,0.102-6.624,1.074-9.844,0.356c-0.646-0.144-1.145,0.823-0.477,1.13C506.241,345.723,509.962,345.702,513.388,345.594z"/>
		<path id="XMLID_455_" style="fill:#564C44;" d="M517.14,452.822c-2.603-0.566-5.209-0.908-7.847-1.247
			c-0.647-0.083-0.906,0.962-0.334,1.232c2.423,1.142,4.913,1.816,7.5,2.483C518.062,455.703,518.744,453.171,517.14,452.822z"/>
		<path id="XMLID_462_" style="fill:#564C44;" d="M517.269,307.408c0.805,0.597,1.764-0.697,1.06-1.373
			c-7.969-7.646-14.712-16.759-19.549-26.688c-0.232-0.476-1.026-0.142-0.857,0.362
			C501.689,290.986,507.661,300.282,517.269,307.408z"/>
		<path id="XMLID_463_" style="fill:#564C44;" d="M502.075,294.296c-0.441-0.621-1.388-0.09-1.031,0.603
			c4.387,8.532,10.351,17.185,18.664,22.333c1.383,0.856,2.991-1.161,1.757-2.278C514.306,308.475,507.716,302.227,502.075,294.296z
			"/>
		<path id="XMLID_464_" style="fill:#564C44;" d="M507.092,311.369c-0.547-0.406-1.212,0.48-0.724,0.938
			c2.624,2.458,5.024,5.136,7.524,7.716c1.107,1.143,2.913-0.74,1.719-1.719C512.78,315.982,510.036,313.553,507.092,311.369z"/>
		<path id="XMLID_465_" style="fill:#564C44;" d="M706.359,661.435c7.24,7.671,13.42,16.365,20.345,24.319
			c1.16,1.332,3.551-0.462,2.479-1.912c-6.024-8.146-12.325-16.496-19.6-23.566c-7.304-7.099-16.456-11.892-24.334-18.293
			c-0.69-0.561-1.682,0.384-0.995,0.995C691.425,649.356,699.75,654.434,706.359,661.435z"/>
		<path id="XMLID_466_" style="fill:#564C44;" d="M701.42,663.82c-0.53-0.397-1.155,0.456-0.698,0.904
			c11.775,11.549,18.207,27.359,28.621,39.925c1.278,1.543,3.558-0.425,2.68-2.067C724.067,687.715,715.123,674.096,701.42,663.82z"
			/>
		<path id="XMLID_467_" style="fill:#564C44;" d="M713.015,690.344c-0.928-0.721-2.256,0.515-1.327,1.327
			c8.185,7.154,11.333,16.967,17.039,25.827c0.815,1.265,3.196,0.469,2.573-1.085C727.409,706.715,721.344,696.815,713.015,690.344z
			"/>
		<path id="XMLID_468_" style="fill:#564C44;" d="M726.642,723.122c1.05,1.203,2.952-0.697,1.749-1.749
			c-3.199-2.798-5.33-6.566-8.429-9.466c-0.442-0.414-1.074,0.22-0.663,0.664C722.233,715.746,723.8,719.868,726.642,723.122z"/>
		<path id="XMLID_469_" style="fill:#564C44;" d="M673.874,696.753c0.752-0.481,0.1-1.54-0.689-1.179
			c-8.393,3.845-15.884,7.664-24.904,9.974c-6.902,1.767-14.016,2.49-20.705,5.025c-2.049,0.776-1.199,4.079,0.918,3.331
			c7.701-2.72,15.944-3.399,23.77-5.808C660.48,705.568,666.683,701.358,673.874,696.753z"/>
		<path id="XMLID_470_" style="fill:#564C44;" d="M659.59,693.24c-10.788,6.235-24.758,5.257-35.168,12.029
			c-1.596,1.039-0.624,3.819,1.347,3.196c11.167-3.527,24.866-7.232,34.402-14.231C660.756,693.806,660.247,692.861,659.59,693.24z"
			/>
		<path id="XMLID_471_" style="fill:#564C44;" d="M643.797,689.261c-7.262,3.835-14.713,7.266-21.997,11.037
			c-1.518,0.786-0.461,3.432,1.183,2.807c7.738-2.943,14.523-8.318,21.438-12.775C645.091,689.898,644.504,688.888,643.797,689.261z
			"/>
		<path id="XMLID_472_" style="fill:#564C44;" d="M605.13,623.103c-3.563,5.208-7.503,10.228-12.069,14.597
			c-4.191,4.01-8.974,7.275-13.351,11.049c-1.049,0.905,0.065,2.903,1.39,2.388c11.654-4.526,19.859-16.613,24.951-27.496
			C606.341,623.021,605.521,622.532,605.13,623.103z"/>
		<path id="XMLID_473_" style="fill:#564C44;" d="M591.758,629.86c0.457-0.591-0.272-1.393-0.844-0.844
			c-4.063,3.89-7.057,8.765-11.663,12.089c-4.138,2.987-8.866,4.811-13.268,7.31c-1.259,0.714-0.802,3.083,0.786,2.901
			c5.092-0.584,10.148-3.511,14.077-6.686C585.743,640.672,587.98,634.746,591.758,629.86z"/>
		<path id="XMLID_474_" style="fill:#564C44;" d="M577.743,635.687c-6.816,3.89-14.04,6.311-21.431,8.808
			c-2.069,0.699-1.229,3.648,0.896,3.249c8.069-1.513,15.219-5.698,21.13-11.287C578.746,636.071,578.223,635.413,577.743,635.687z"
			/>
		<path id="XMLID_475_" style="fill:#564C44;" d="M561.04,637.167c-4.545,2.67-9.559,4.309-14.731,5.226
			c-2.086,0.37-1.224,3.659,0.884,3.208c5.536-1.185,10.207-3.983,14.493-7.596C562.155,637.609,561.552,636.866,561.04,637.167z"/>
		<path id="XMLID_476_" style="fill:#564C44;" d="M406.693,619.162c-4.001-6.654-9.132-12.794-14.202-18.656
			c-0.439-0.507-1.329,0.167-0.938,0.724c4.49,6.387,8.584,13.133,13.365,19.302C405.712,621.557,407.342,620.241,406.693,619.162z"
			/>
		<path id="XMLID_477_" style="fill:#564C44;" d="M635.045,685.695c-5.676,3.196-11.812,5.766-17.176,9.465
			c-1.609,1.11-0.024,3.766,1.528,2.615c5.283-3.916,11.392-6.852,16.294-11.242C636.15,686.12,635.562,685.404,635.045,685.695z"/>
		<path id="XMLID_478_" style="fill:#564C44;" d="M626,684.574c-1.743,1.263-3.448,2.589-5.242,3.78
			c-1.81,1.202-3.757,1.994-5.686,2.965c-1.047,0.527-0.319,2.3,0.805,1.91c4.04-1.401,7.466-5.255,10.639-7.985
			C626.879,684.932,626.394,684.288,626,684.574z"/>
		<path id="XMLID_479_" style="fill:#564C44;" d="M619.411,685.237c0.321-0.193,0.114-0.753-0.263-0.624
			c-2.483,0.855-4.575,2.341-6.871,3.562c-1.51,0.803,0.258,3.118,1.421,1.842C615.346,688.211,617.317,686.497,619.411,685.237z"/>
		<path id="XMLID_480_" style="fill:#564C44;" d="M615.709,682.487c-1.944,0.831-3.84,1.99-5.87,2.578
			c-1.535,0.445-0.656,2.765,0.871,2.066c2.119-0.97,3.55-2.627,5.386-3.981C616.498,682.854,616.163,682.293,615.709,682.487z"/>
		<path id="XMLID_481_" style="fill:#564C44;" d="M448.65,640.828c-1.229,1.457,0.635,3.332,2.091,2.091
			c3.139-2.676,6.041-5.595,9.291-8.148c3.239-2.546,6.669-4.815,9.947-7.305c0.428-0.325,0.208-1.189-0.405-0.961
			C461.945,629.339,453.925,634.576,448.65,640.828z"/>
		<path id="XMLID_482_" style="fill:#564C44;" d="M465.293,636.39c-5.31,1.969-11.811,5.203-13.977,10.857
			c-0.609,1.589,1.842,2.502,2.677,1.128c2.777-4.57,7.194-8.128,11.804-10.79C466.419,637.226,466.005,636.126,465.293,636.39z"/>
		<path id="XMLID_483_" style="fill:#564C44;" d="M417.125,668.143c5.447-4.346,8.709-10.407,15.042-13.815
			c0.713-0.384,0.228-1.593-0.559-1.325c-6.646,2.26-12.015,7.895-16.675,12.949C413.55,667.451,415.594,669.365,417.125,668.143z"
			/>
		<path id="XMLID_484_" style="fill:#564C44;" d="M427.303,662.068c-3.816,2.133-6.597,4.881-8.559,8.811
			c-0.821,1.645,1.695,3.083,2.455,1.435c1.629-3.531,3.92-6.755,6.707-9.465C428.316,662.451,427.794,661.794,427.303,662.068z"/>
		<path id="XMLID_485_" style="fill:#564C44;" d="M618.769,627.245c9.566-4.285,20.317-11.037,24.822-21.007
			c0.667-1.476-1.081-3.125-2.367-1.826c-3.598,3.634-6.564,7.848-10.237,11.458c-3.938,3.87-8.059,7.605-12.49,10.908
			C618.217,626.987,618.449,627.388,618.769,627.245z"/>
		<path id="XMLID_486_" style="fill:#564C44;" d="M636.507,619.787c-0.639,0.334-0.2,1.389,0.493,1.169
			c3.189-1.01,6.069-2.965,8.542-5.183c2.396-2.149,5.292-5.051,6.002-8.317c0.394-1.813-2.291-3.209-3.17-1.337
			C645.857,611.48,641.889,616.972,636.507,619.787z"/>
	</g>
</g>
</svg>
